<svg id="Layer_2" data-name="Layer 2" xmlns="http://www.w3.org/2000/svg" viewBox="0 0 24 24"><defs><style>.cls-1{fill:#231f20;}</style></defs><title>icons_final</title><path class="cls-1" d="M11.91,24h-.1a8.74,8.74,0,0,1-1.74-.86,15.6,15.6,0,0,1-1.84-1.39A20.92,20.92,0,0,1,6.42,19.9a21.34,21.34,0,0,1-1.67-2.16c-.47-.69-1-1.5-1.45-2.42A23.34,23.34,0,0,1,2,12.24,25,25,0,0,1,1,8.53,22.7,22.7,0,0,1,.6,4.21a.57.57,0,0,1,.17-.42.58.58,0,0,1,.43-.18A12.06,12.06,0,0,0,4,3.23,27.8,27.8,0,0,0,7,2.3,26.82,26.82,0,0,0,9.75,1.15a18.21,18.21,0,0,0,1.91-1A.57.57,0,0,1,12,0a.58.58,0,0,1,.34.11,17.23,17.23,0,0,0,1.91,1A28,28,0,0,0,17,2.3a27.8,27.8,0,0,0,3,.93,11.91,11.91,0,0,0,2.8.38.6.6,0,0,1,.44.18.57.57,0,0,1,.17.42A23.55,23.55,0,0,1,23,8.53a26.32,26.32,0,0,1-1,3.71,22.09,22.09,0,0,1-1.33,3.08,26.12,26.12,0,0,1-1.46,2.42,19.91,19.91,0,0,1-1.66,2.16,20.92,20.92,0,0,1-1.81,1.83,15.6,15.6,0,0,1-1.84,1.39,8.74,8.74,0,0,1-1.74.86h-.28ZM2.23,8.69a24.32,24.32,0,0,0,1,3.36,20.83,20.83,0,0,0,1.23,2.8,22.19,22.19,0,0,0,1.33,2.21,19.46,19.46,0,0,0,1.65,2.12,18.77,18.77,0,0,0,1.67,1.67,13.43,13.43,0,0,0,1.57,1.2,7.65,7.65,0,0,0,1.37.72,7.65,7.65,0,0,0,1.37-.72,13.43,13.43,0,0,0,1.57-1.2,18.77,18.77,0,0,0,1.67-1.67,19.41,19.41,0,0,0,1.64-2.12,24.27,24.27,0,0,0,1.33-2.21,19.64,19.64,0,0,0,1.24-2.8,23,23,0,0,0,.94-3.36,22.69,22.69,0,0,0,.44-3.91,12.78,12.78,0,0,1-1.5-.18q-.76-.13-1.5-.33c-.49-.13-1-.27-1.42-.41l-1.27-.44q-.63-.24-1.26-.51c-.43-.17-.83-.35-1.22-.53s-.76-.36-1.1-.54-.66-.36-.93-.53c-.27.17-.58.35-.93.53L10,2.38c-.39.18-.79.36-1.22.53s-.84.35-1.27.51l-1.26.44c-.46.14-.93.28-1.43.41s-1,.24-1.49.33a13,13,0,0,1-1.5.18A22.71,22.71,0,0,0,2.23,8.69Z"/></svg>