<svg id="Layer_2" data-name="Layer 2" xmlns="http://www.w3.org/2000/svg" viewBox="0 0 24 24"><defs><style>.cls-1{fill:#231f20;}</style></defs><title>icons_final</title><path class="cls-1" d="M9,19.21a.59.59,0,0,1,.42.17.58.58,0,0,1,.18.42v2.41A1.81,1.81,0,0,1,7.8,24a1.76,1.76,0,0,1-.66-.12,2.2,2.2,0,0,1-.55-.34,2,2,0,0,1-.55.34,1.8,1.8,0,0,1-1.92-.41,1.69,1.69,0,0,1-.53-1.26V15.5a1.57,1.57,0,0,1-.29.08l-.31,0a1.75,1.75,0,0,1-1.28-.53,1.74,1.74,0,0,1-.52-1.28V9A1.78,1.78,0,0,1,3,7.21H9a.59.59,0,0,1,.42.17.58.58,0,0,1,.18.42.58.58,0,0,1-.18.43A.59.59,0,0,1,9,8.4H3a.62.62,0,0,0-.6.6v4.8a.58.58,0,0,0,.18.43A.61.61,0,0,0,3,14.4a.59.59,0,0,0,.42-.17.58.58,0,0,0,.18-.43V10.21a.57.57,0,0,1,.17-.42.6.6,0,0,1,.86,0,.54.54,0,0,1,.18.42v12a.58.58,0,0,0,.59.59.54.54,0,0,0,.42-.17A.58.58,0,0,0,6,22.21V15a.58.58,0,0,1,.18-.42.54.54,0,0,1,.42-.18.62.62,0,0,1,.6.6v7.21a.57.57,0,0,0,.17.42.58.58,0,0,0,.44.17.57.57,0,0,0,.42-.17.61.61,0,0,0,.17-.42V19.8a.58.58,0,0,1,.18-.42A.61.61,0,0,1,9,19.21ZM6.59,6a3,3,0,0,0,1.16-.23,3,3,0,0,0,1-.64,2.89,2.89,0,0,0,.64-1,3,3,0,0,0,0-2.34A3,3,0,0,0,8.71.88a3.22,3.22,0,0,0-1-.64A2.83,2.83,0,0,0,6.59,0,2.88,2.88,0,0,0,5.42.24a3.31,3.31,0,0,0-1,.64,3,3,0,0,0-.65,1,3.09,3.09,0,0,0,0,2.34,2.91,2.91,0,0,0,.65,1,3.12,3.12,0,0,0,1,.64A3.05,3.05,0,0,0,6.59,6Zm0-4.79A1.78,1.78,0,0,1,8.39,3a1.78,1.78,0,0,1-1.8,1.8A1.78,1.78,0,0,1,4.8,3a1.75,1.75,0,0,1,.52-1.27A1.74,1.74,0,0,1,6.59,1.21ZM19.9,13.57l-2.18-2.19-.27,1,3.72,3.72a1.13,1.13,0,0,1,.43.76,1.38,1.38,0,0,1-.06.49,1.49,1.49,0,0,1-.3.37,1.18,1.18,0,0,1-.85.24H18v4.21A1.81,1.81,0,0,1,16.19,24a1.75,1.75,0,0,1-.65-.12,2,2,0,0,1-.55-.34,2.15,2.15,0,0,1-.54.34,1.82,1.82,0,0,1-.65.12,1.75,1.75,0,0,1-1.28-.53A1.72,1.72,0,0,1,12,22.21V18H9.59a1.18,1.18,0,0,1-.85-.24,1.49,1.49,0,0,1-.3-.37,1.38,1.38,0,0,1-.06-.49,1.18,1.18,0,0,1,.43-.76l3.72-3.72-.27-1-2.18,2.19a1.84,1.84,0,0,1-.62.4,1.73,1.73,0,0,1-.7.15A1.58,1.58,0,0,1,8.15,14a1.38,1.38,0,0,1-.52-.34,1.42,1.42,0,0,1-.36-.56,1.73,1.73,0,0,1-.1-.68,1.84,1.84,0,0,1,.17-.64,2,2,0,0,1,.38-.57l3-3a3.66,3.66,0,0,1,1.16-.73,3.36,3.36,0,0,1,1.32-.29H16.8a3.35,3.35,0,0,1,1.31.29,3.66,3.66,0,0,1,1.16.73l3,3a1.84,1.84,0,0,1,.55,1.25,1.51,1.51,0,0,1-.46,1.2,1.38,1.38,0,0,1-.52.34,1.54,1.54,0,0,1-.61.12,1.73,1.73,0,0,1-.7-.15A1.94,1.94,0,0,1,19.9,13.57ZM16.36,13a.72.72,0,0,1-.15-.27.76.76,0,0,1,0-.3l.6-2.41A.46.46,0,0,1,17,9.79a.54.54,0,0,1,.58-.16.5.5,0,0,1,.27.16l3,2.92a.46.46,0,0,0,.21.16.57.57,0,0,0,.25.06l.14,0a.37.37,0,0,0,.15-.08.43.43,0,0,0,.1-.36.69.69,0,0,0-.21-.39l-3-3a2.06,2.06,0,0,0-.75-.47,2.32,2.32,0,0,0-.86-.21H13.19a2.32,2.32,0,0,0-.87.21,2.06,2.06,0,0,0-.75.47l-3,3a.8.8,0,0,0-.15.21.9.9,0,0,0-.06.22.93.93,0,0,0,0,.14.28.28,0,0,0,.23.26l.14,0A.57.57,0,0,0,9,12.87a.46.46,0,0,0,.21-.16l2.95-2.92a.5.5,0,0,1,.27-.16.54.54,0,0,1,.58.16.46.46,0,0,1,.15.26l.6,2.41a.61.61,0,0,1,0,.3.72.72,0,0,1-.15.27L9.83,16.8H20.15ZM15,6a3,3,0,0,0,2.12-.87,3.07,3.07,0,0,0,.65-1,3.09,3.09,0,0,0,0-2.34,3.15,3.15,0,0,0-.65-.95,3.31,3.31,0,0,0-.95-.64,3,3,0,0,0-2.34,0,3.31,3.31,0,0,0-1,.64,3.15,3.15,0,0,0-.65,1,3.09,3.09,0,0,0,0,2.34,3.07,3.07,0,0,0,.65,1A3,3,0,0,0,15,6Zm0-4.79a1.74,1.74,0,0,1,1.28.52A1.76,1.76,0,0,1,16.8,3a1.75,1.75,0,0,1-.53,1.28A1.8,1.8,0,0,1,13.19,3,1.78,1.78,0,0,1,15,1.21ZM13.8,22.8a.57.57,0,0,0,.42-.17.61.61,0,0,0,.17-.42V18h-1.2v4.21a.57.57,0,0,0,.17.42A.58.58,0,0,0,13.8,22.8Zm3-.59V18H15.59v4.21a.61.61,0,0,0,.17.42.61.61,0,0,0,1-.42Z"/></svg>