<svg id="Layer_2" data-name="Layer 2" xmlns="http://www.w3.org/2000/svg" viewBox="0 0 24 24"><defs><style>.cls-1{fill:#231f20;}</style></defs><title>icons_final</title><path class="cls-1" d="M1.2,24a.58.58,0,0,1-.43-.18A.57.57,0,0,1,.6,23.4.61.61,0,0,1,.77,23a.58.58,0,0,1,.43-.18H22.79a.6.6,0,0,1,.61.6.57.57,0,0,1-.17.42.6.6,0,0,1-.44.18Zm5.4-3.6V9.61h.6a.58.58,0,0,0,.42-.18A.6.6,0,0,0,7.79,9a.61.61,0,0,0-.17-.42A.58.58,0,0,0,7.2,8.4H2.4A.58.58,0,0,0,2,8.58.58.58,0,0,0,1.79,9,.57.57,0,0,0,2,9.43a.58.58,0,0,0,.43.18H3V20.4H2.4a.58.58,0,0,0-.43.18.58.58,0,0,0-.18.42.57.57,0,0,0,.18.43.58.58,0,0,0,.43.18H7.2a.58.58,0,0,0,.42-.18A.6.6,0,0,0,7.79,21a.61.61,0,0,0-.17-.42.58.58,0,0,0-.42-.18ZM2.4,7.21A.56.56,0,0,1,2,7.08a.59.59,0,0,1-.19-.69.58.58,0,0,1,.23-.3l9.61-6A.59.59,0,0,1,12,0a.66.66,0,0,1,.33.09l9.59,6a.57.57,0,0,1,.25.3.55.55,0,0,1,0,.38.62.62,0,0,1-.21.31.55.55,0,0,1-.36.13ZM4.2,20.4V9.61H5.4V20.4ZM19.5,6,12,1.31,4.49,6ZM13.79,20.4V9.61h.61a.54.54,0,0,0,.42-.18A.57.57,0,0,0,15,9a.58.58,0,0,0-.18-.42.54.54,0,0,0-.42-.18H9.6a.54.54,0,0,0-.42.18A.58.58,0,0,0,9,9a.57.57,0,0,0,.18.43.54.54,0,0,0,.42.18h.6V20.4H9.6a.54.54,0,0,0-.42.18A.58.58,0,0,0,9,21a.57.57,0,0,0,.18.43.54.54,0,0,0,.42.18h4.8a.54.54,0,0,0,.42-.18A.57.57,0,0,0,15,21a.58.58,0,0,0-.18-.42.54.54,0,0,0-.42-.18Zm-2.39,0V9.61h1.2V20.4Zm9.6,0V9.61h.6A.58.58,0,0,0,22,9.43.57.57,0,0,0,22.2,9a.62.62,0,0,0-.6-.6H16.79a.58.58,0,0,0-.42.18A.57.57,0,0,0,16.2,9a.56.56,0,0,0,.17.43.58.58,0,0,0,.42.18h.61V20.4h-.61a.58.58,0,0,0-.42.18.57.57,0,0,0-.17.42.56.56,0,0,0,.17.43.58.58,0,0,0,.42.18H21.6a.58.58,0,0,0,.42-.18A.57.57,0,0,0,22.2,21a.62.62,0,0,0-.6-.6Zm-2.4,0V9.61h1.19V20.4Z"/></svg>