<?xml version="1.0" encoding="UTF-8"?>
<svg width="16px" height="16px" viewBox="0 0 16 16" version="1.1" xmlns="http://www.w3.org/2000/svg" xmlns:xlink="http://www.w3.org/1999/xlink">
    <!-- Generator: Sketch 53.1 (72631) - https://sketchapp.com -->
    <title>iconTurkey</title>
    <desc>Created with Sketch.</desc>
    <g id="iconTurkey" stroke="none" stroke-width="1" fill="none" fill-rule="evenodd">
        <g id="SVG-Layer" fill="#000000" fill-rule="nonzero">
            <g id="Path" transform="translate(3.000000, 2.285714)">
                <path d="M5,11.4285042 C2.24282353,11.4285042 5.88235294e-05,8.86514286 5.88235294e-05,5.71428571 C5.88235294e-05,5.3429916 0.263529412,5.04208403 0.588235294,5.04208403 C0.912941176,5.04208403 1.17641176,5.34319328 1.17641176,5.71428571 C1.17641176,8.12356303 2.89152941,10.0841008 5,10.0841008 C7.10811765,10.0841008 8.82358824,8.12356303 8.82358824,5.71428571 C8.82358824,3.30480672 7.10811765,1.34447059 5,1.34447059 C4.67511765,1.34447059 4.41182353,1.04336134 4.41182353,0.672268908 C4.41182353,0.301176471 4.67529412,6.72268908e-05 5,6.72268908e-05 C7.757,6.72268908e-05 9.99994118,2.56342857 9.99994118,5.71428571 C9.99994118,8.86514286 7.757,11.4285042 5,11.4285042 Z"></path>
                <path d="M1.19741176,3.82736134 C1.09594118,3.82736134 0.992882353,3.79731092 0.899,3.73398319 C0.619294118,3.54521008 0.526294118,3.13317647 0.691294118,2.81331092 C1.13,1.96383193 1.75735294,1.25411765 2.50541176,0.761008403 C2.78652941,0.575058824 3.14652941,0.685983193 3.30870588,1.00746218 C3.47105882,1.32894118 3.37452941,1.74016807 3.09305882,1.92571429 C2.52041176,2.3032605 2.04041176,2.84618487 1.70458824,3.49680672 C1.595,3.70897479 1.39876471,3.82736134 1.19741176,3.82736134 Z"></path>
            </g>
            <path d="M14.5539412,15.9790924 L1.44605882,15.9790924 C1.29005882,15.9790924 1.14041176,15.9081008 1.03011765,15.7820504 L0.231235294,14.8692437 C0.120941176,14.7431933 0.0588235294,14.5719664 0.0588235294,14.3936807 C0.0588235294,14.215395 0.120941176,14.0445714 0.231235294,13.918521 L0.614176471,13.4806723 L0.231235294,13.0426218 C0.00164705882,12.780437 0.00147058824,12.3546891 0.231058824,12.0921008 L0.614352941,11.6538487 L0.231235294,11.2155966 C0.00147058824,10.9528067 0.00147058824,10.5274622 0.231235294,10.2648739 L0.614352941,9.82662185 L0.231058824,9.38836975 C0.00147058824,9.12578151 0.00164705882,8.70003361 0.231235294,8.43764706 L0.614176471,8 L0.231235294,7.56215126 C0.00164705882,7.29976471 0.00147058824,6.87421849 0.231058824,6.61183193 L0.614352941,6.17317647 L0.231235294,5.73512605 C0.00147058824,5.4727395 0.00147058824,5.0469916 0.231235294,4.78460504 L0.614352941,4.34655462 L0.231058824,3.90810084 C0.00147058824,3.64571429 0.00164705882,3.21996639 0.231235294,2.95757983 L0.614176471,2.51973109 L0.231235294,2.08188235 C0.120941176,1.95542857 0.0588235294,1.78440336 0.0588235294,1.60611765 C0.0588235294,1.42783193 0.120941176,1.2570084 0.231235294,1.13095798 L1.03029412,0.217747899 C1.14058824,0.091697479 1.29023529,0.0207058824 1.44623529,0.0207058824 L14.5539412,0.0207058824 C14.7099412,0.0207058824 14.8594118,0.091697479 14.9697059,0.217747899 L15.7687647,1.13095798 C15.8790588,1.2570084 15.9411765,1.42803361 15.9411765,1.60611765 C15.9411765,1.78420168 15.8790588,1.95542857 15.7687647,2.08147899 L15.3856471,2.51932773 L15.7687647,2.95717647 C15.9985294,3.21956303 15.9985294,3.64531092 15.7691176,3.90769748 L15.3856471,4.34615126 L15.7687647,4.78420168 C15.9985294,5.04658824 15.9985294,5.47233613 15.7687647,5.73472269 L15.3856471,6.17277311 L15.7691176,6.61142857 C15.9985294,6.87381513 15.9985294,7.29936134 15.7687647,7.5617479 L15.3858235,8 L15.7689412,8.43784874 C15.9987059,8.70023529 15.9987059,9.12598319 15.7692941,9.38857143 L15.3858235,9.82682353 L15.7689412,10.2650756 C15.9987059,10.5276639 15.9987059,10.9530084 15.7689412,11.2157983 L15.3858235,11.6540504 L15.7692941,12.0923025 C15.9987059,12.3548908 15.9987059,12.7806387 15.7689412,13.0428235 L15.3858235,13.4808739 L15.7689412,13.9187227 C15.8790588,14.0445714 15.9411765,14.215395 15.9411765,14.3936807 C15.9411765,14.5719664 15.8790588,14.7429916 15.7687647,14.869042 L14.9697059,15.7820504 C14.8594118,15.9083025 14.7097647,15.9790924 14.5539412,15.9790924 Z M1.68976471,14.6346891 L14.3104118,14.6346891 L14.5211176,14.3936807 L14.138,13.9558319 C13.9080588,13.6932437 13.9080588,13.2678992 14.138,13.0051092 L14.5211176,12.5668571 L14.1376471,12.128605 C13.9080588,11.8660168 13.9080588,11.4402689 14.138,11.178084 L14.5211176,10.7400336 L14.138,10.3021849 C13.9080588,10.0397983 13.9080588,9.6142521 14.1376471,9.35146218 L14.5211176,8.91321008 L14.138,8.47495798 C13.9080588,8.21257143 13.9080588,7.78682353 14.138,7.52443697 L14.5211176,7.08638655 L14.1376471,6.64793277 C13.9080588,6.38554622 13.9080588,5.95979832 14.138,5.69741176 L14.5211176,5.25956303 L14.138,4.82171429 C13.9080588,4.55932773 13.9080588,4.13357983 14.1376471,3.87119328 L14.5211176,3.4327395 L14.138,2.99468908 C13.9080588,2.73230252 13.9080588,2.30655462 14.138,2.04416807 L14.5211176,1.60631933 L14.3104118,1.36551261 L1.68976471,1.36551261 L1.47905882,1.60631933 L1.862,2.04416807 C2.09176471,2.30655462 2.09176471,2.73230252 1.862,2.99468908 L1.47888235,3.4327395 L1.86217647,3.87119328 C2.09176471,4.13357983 2.09176471,4.55932773 1.86217647,4.82171429 L1.47923529,5.25956303 L1.86217647,5.69741176 C2.09194118,5.95979832 2.09194118,6.38554622 1.86217647,6.64793277 L1.47888235,7.08638655 L1.862,7.52443697 C2.09176471,7.78682353 2.09176471,8.21277311 1.862,8.47495798 L1.47888235,8.91321008 L1.86217647,9.35146218 C2.09176471,9.6142521 2.09176471,10.0397983 1.86217647,10.3021849 L1.47923529,10.7400336 L1.86217647,11.178084 C2.09194118,11.4402689 2.09194118,11.8660168 1.86217647,12.128605 L1.47888235,12.5668571 L1.862,13.0051092 C2.09176471,13.2678992 2.09176471,13.6932437 1.862,13.9558319 L1.47905882,14.3936807 L1.68976471,14.6346891 Z" id="Shape"></path>
            <path d="M8,2.28578151 C7.19811765,2.28578151 7.19811765,3.63038655 8,3.63038655 C10.1081176,3.63038655 11.8235882,5.59052101 11.8235882,8.00020168 C11.8235882,10.409479 10.1081176,12.3700168 8,12.3700168 C5.89170588,12.3700168 4.17641176,10.409479 4.17641176,8.00020168 C4.17641176,7.08376471 2.99988235,7.08376471 2.99988235,8.00020168 C2.99988235,11.1510588 5.24282353,13.7144202 7.99982353,13.7144202 C10.7568235,13.7144202 12.9997647,11.1510588 12.9997647,8.00020168 C12.9999412,4.84894118 10.757,2.28578151 8,2.28578151 Z M4.70476471,5.78231933 C5.06741176,5.15105882 5.52058824,4.58877311 6.09323529,4.21122689 C6.75729412,3.77357983 6.16876471,2.60786555 5.50558824,3.04652101 C4.75752941,3.53963025 4.13017647,4.24914286 3.69147059,5.09882353 C3.29741176,5.86258824 4.26605882,6.54568067 4.70476471,5.78231933 Z M15.3858235,13.4806723 L15.7689412,13.0426218 C15.9987059,12.780437 15.9987059,12.3546891 15.7692941,12.0921008 L15.3858235,11.6538487 L15.7689412,11.2155966 C15.9987059,10.9528067 15.9987059,10.5274622 15.7689412,10.2648739 L15.3858235,9.82662185 L15.7692941,9.38836975 C15.9987059,9.12578151 15.9987059,8.70003361 15.7689412,8.43764706 L15.3858235,8 L15.7689412,7.56215126 C15.9987059,7.29976471 15.9987059,6.87421849 15.7692941,6.61183193 L15.3858235,6.17317647 L15.7689412,5.73512605 C15.9987059,5.4727395 15.9987059,5.0469916 15.7689412,4.78460504 L15.3858235,4.34655462 L15.7692941,3.90810084 C15.9987059,3.64571429 15.9987059,3.21996639 15.7689412,2.95757983 L15.3858235,2.51973109 L15.7689412,2.08188235 C15.9988824,1.81909244 15.9987059,1.3937479 15.7689412,1.13136134 L14.9698824,0.218151261 C14.8595882,0.0921008403 14.7099412,0.0211092437 14.5541176,0.0211092437 L1.44605882,0.0211092437 C1.29005882,0.0211092437 1.14041176,0.0921008403 1.03011765,0.218151261 L0.231058824,1.13136134 C-0.0405294118,1.4417479 0.120764706,1.95583193 0.231058824,2.08188235 L0.614,2.51973109 L0.231058824,2.95757983 C0.00147058824,3.21996639 0.00129411765,3.64571429 0.230882353,3.90810084 L0.614176471,4.34655462 L0.231058824,4.78460504 C0.00129411765,5.0469916 0.00129411765,5.4727395 0.231058824,5.73512605 L0.614176471,6.17317647 L0.230882353,6.61183193 C0.00129411765,6.87421849 0.00147058824,7.29976471 0.231058824,7.56215126 L0.614176471,8 L0.231235294,8.43784874 C0.00164705882,8.70023529 0.00147058824,9.12598319 0.231058824,9.38857143 L0.614352941,9.82682353 L0.231235294,10.2648739 C0.00147058824,10.5274622 0.00147058824,10.9528067 0.231235294,11.2155966 L0.614352941,11.6538487 L0.231058824,12.0921008 C0.00147058824,12.3546891 0.00164705882,12.780437 0.231235294,13.0426218 L0.614176471,13.4806723 L0.231235294,13.918521 C0.0459411765,14.1302857 -0.0392941176,14.5600672 0.231235294,14.8692437 L1.03029412,15.7822521 C1.14058824,15.9083025 1.29023529,15.9792941 1.44623529,15.9792941 L14.5539412,15.9792941 C14.7099412,15.9792941 14.8594118,15.9083025 14.9697059,15.7822521 L15.7687647,14.8692437 C15.9988824,14.6062521 15.9983529,14.1809076 15.7687647,13.918521 L15.3858235,13.4806723 Z M14.138,2.99468908 L14.5211176,3.4327395 L14.1376471,3.87119328 C13.9080588,4.13357983 13.9080588,4.55932773 14.138,4.82171429 L14.5211176,5.25956303 L14.138,5.69741176 C13.9080588,5.95979832 13.9080588,6.38554622 14.1376471,6.64793277 L14.5211176,7.08638655 L14.138,7.52443697 C13.9080588,7.78682353 13.9080588,8.21277311 14.138,8.47495798 L14.5211176,8.91321008 L14.1376471,9.35146218 C13.9080588,9.6142521 13.9080588,10.0397983 14.138,10.3021849 L14.5211176,10.7400336 L14.138,11.178084 C13.9080588,11.4402689 13.9080588,11.8660168 14.1376471,12.128605 L14.5211176,12.5668571 L14.138,13.0051092 C13.9080588,13.2678992 13.9080588,13.6932437 14.138,13.9558319 L14.5211176,14.3936807 L14.3104118,14.6346891 L1.68976471,14.6346891 L1.47905882,14.3936807 L1.862,13.9558319 C2.09176471,13.6932437 2.09176471,13.2678992 1.862,13.0051092 L1.47888235,12.5668571 L1.86217647,12.128605 C2.09176471,11.8660168 2.09176471,11.4402689 1.86217647,11.178084 L1.47923529,10.7400336 L1.86217647,10.3021849 C2.09194118,10.0397983 2.09194118,9.6142521 1.86217647,9.35146218 L1.47888235,8.91321008 L1.862,8.47495798 C2.09176471,8.21257143 2.09176471,7.78682353 1.862,7.52443697 L1.47888235,7.08638655 L1.86217647,6.64793277 C2.09176471,6.38554622 2.09176471,5.95979832 1.86217647,5.69741176 L1.47923529,5.25956303 L1.86217647,4.82171429 C2.09194118,4.55932773 2.09194118,4.13357983 1.86217647,3.87119328 L1.47888235,3.4327395 L1.862,2.99468908 C2.09176471,2.73230252 2.09176471,2.30655462 1.862,2.04416807 L1.47905882,1.60631933 L1.68976471,1.36551261 L14.3104118,1.36551261 L14.5211176,1.60631933 L14.138,2.04416807 C13.9080588,2.30655462 13.9080588,2.73230252 14.138,2.99468908 Z" id="Shape"></path>
        </g>
    </g>
</svg>