<svg id="Layer_2" data-name="Layer 2" xmlns="http://www.w3.org/2000/svg" viewBox="0 0 24 24"><defs><style>.cls-1,.cls-2{fill:#231f20;}.cls-1{stroke:#231f20;stroke-miterlimit:10;stroke-width:0.25px;}</style></defs><title>icons_final</title><path class="cls-1" d="M3.77,14.1h0l0,0a.08.08,0,0,1,0-.05s0,0,0-.05l.66-2.25a1.15,1.15,0,0,1-.48-.43A1,1,0,0,1,3.7,11a1.15,1.15,0,0,1,0-.33,1.12,1.12,0,0,1,.09-.44A1.31,1.31,0,0,1,4,9.84a1.31,1.31,0,0,1,.37-.24,1.12,1.12,0,0,1,.44-.09,1.13,1.13,0,0,1,.45.09,1.31,1.31,0,0,1,.37.24,1.31,1.31,0,0,1,.24.37,1.12,1.12,0,0,1,.09.44,1.15,1.15,0,0,1,0,.33,1.3,1.3,0,0,1-.14.29,1.15,1.15,0,0,1-.48.43L6,14V14a.08.08,0,0,1,0,.05l0,0H3.77Zm1.91-.23L5,11.66a.08.08,0,0,1,0-.08.09.09,0,0,1,.06-.06,1,1,0,0,0,.25-.13.89.89,0,0,0,.19-.2.85.85,0,0,0,.13-.25,1,1,0,0,0,0-.29.94.94,0,0,0-.56-.84.86.86,0,0,0-.36-.07.84.84,0,0,0-.35.07.88.88,0,0,0-.3.2A1,1,0,0,0,4,10.3a.85.85,0,0,0-.08.35,1,1,0,0,0,.05.29,1.15,1.15,0,0,0,.12.25,1.26,1.26,0,0,0,.2.2,1,1,0,0,0,.25.13.09.09,0,0,1,.06.06.08.08,0,0,1,0,.08l-.65,2.21Z"/><rect class="cls-2" x="1.8" width="1.22" height="24"/><rect class="cls-2" x="11.39" y="-11.39" width="1.22" height="24" rx="0.61" transform="translate(12.61 -11.39) rotate(90)"/><rect class="cls-2" x="11.39" y="11.39" width="1.22" height="24" rx="0.61" transform="translate(35.39 11.39) rotate(90)"/><rect class="cls-2" x="6.59" width="1.22" height="24"/><rect class="cls-2" x="11.39" width="1.22" height="24"/><rect class="cls-2" x="16.19" width="1.22" height="24"/><rect class="cls-2" x="20.99" width="1.22" height="24"/><rect class="cls-2" x="4.2" y="5.77" width="1.22" height="3.58" transform="translate(12.37 2.76) rotate(90)"/><rect class="cls-2" x="4.2" y="14.25" width="1.22" height="3.58" transform="translate(20.84 11.24) rotate(90)"/></svg>