<?xml version="1.0" encoding="UTF-8"?>
<svg width="16px" height="16px" viewBox="0 0 16 16" version="1.1" xmlns="http://www.w3.org/2000/svg" xmlns:xlink="http://www.w3.org/1999/xlink">
    <!-- Generator: Sketch 53.1 (72631) - https://sketchapp.com -->
    <title>iconUK</title>
    <desc>Created with Sketch.</desc>
    <g id="iconUK" stroke="none" stroke-width="1" fill="none" fill-rule="evenodd">
        <g id="police" transform="translate(1.000000, 0.000000)" fill="#000000" fill-rule="nonzero">
            <path d="M8.78603155,9.90476814 C8.71853045,9.90565456 8.6540232,9.93476241 8.60629686,9.98592224 L7.23809523,11.453193 L5.86989361,9.98700427 C5.82043742,9.93398183 5.75304021,9.90470219 5.6830912,9.90585011 C5.63343445,9.90668116 5.58506032,9.92284724 5.54374625,9.9523762 L4.76826357,10.5063898 C4.65576792,10.5864215 4.61969764,10.7457497 4.68546477,10.8721257 L5.97793592,13.3651871 L6.43030076,13.0957542 L5.25294024,10.8255969 L5.65380843,10.5399337 L6.97960101,11.9595958 L6.97960101,15.4459864 L0.592976147,15.4459864 L1.0473605,13.5588774 C1.19194465,12.9586486 1.50208369,12.4376486 1.91775905,12.0429144 L2.28429579,12.9269557 C2.34064004,13.0631427 2.48739807,13.1271972 2.61650125,13.0719516 L3.90897237,12.517938 C4.03931984,12.4621438 4.10430917,12.3050853 4.0553851,12.164105 L3.73125759,11.2367814 L4.18261286,11.1491348 C4.52471135,11.0848687 4.43093999,10.5343769 4.08971634,10.6037776 L3.19912298,10.7779889 C1.91008642,11.0290678 0.873936726,12.061157 0.546527944,13.420374 L0.00833490365,15.6537415 C-0.0339025873,15.8291356 0.0897167434,16.0000681 0.258751183,16 C4.91164722,16 9.56454325,16 14.2174393,16 C14.3864738,16.0000681 14.510093,15.8291356 14.4678556,15.6537415 L13.9296623,13.420374 C13.6022535,12.061157 12.5661042,11.0290678 11.2770675,10.7779889 L10.3864742,10.6037776 C10.3695532,10.5997887 10.3523013,10.5975948 10.334977,10.5972846 L10.334977,10.5983926 C10.0149069,10.596232 9.97730892,11.0964104 10.2935766,11.1491603 L10.7449318,11.2368069 L10.4208043,12.1641304 C10.3712252,12.3054233 10.4363295,12.4632435 10.567217,12.5190454 L11.8596881,13.073059 C11.9887915,13.1283053 12.135549,13.0642502 12.1918935,12.9280632 L12.5594403,12.04294 C12.9748167,12.4376104 13.2843129,12.9589577 13.4288287,13.558903 L13.8832146,15.4459864 L11.2447557,15.4459864 L11.2447557,14.1648299 L8.65981347,14.1648299 L8.65981347,15.4459864 L7.49658946,15.4459864 L7.49658946,11.9595958 L8.82238204,10.5399359 L9.2232502,10.8255992 L8.04588971,13.0957564 L8.49825455,13.3651893 L9.79072567,10.872128 C9.85649283,10.745752 9.82042149,10.5864237 9.7079269,10.506392 L8.93244422,9.95237839 C8.88923949,9.92103782 8.83820084,9.90444513 8.78603155,9.90476649 L8.78603155,9.90476814 Z M11.2599019,11.3428229 C11.5728211,11.4133439 11.8643891,11.5404208 12.1303006,11.7107224 L11.8203091,12.4595067 L10.9933298,12.1045917 L11.2599019,11.3428229 Z M3.21527887,11.343931 L3.48185104,12.1046177 L2.65588124,12.4584507 L2.34589011,11.7107484 C2.61145828,11.5406662 2.90281245,11.4145012 3.21527887,11.343931 Z M9.17680192,14.7188435 L10.7277673,14.7188435 L10.7277673,15.4459864 L9.17680192,15.4459864 L9.17680192,14.7188435 Z" id="Shape"></path>
            <path d="M7.2370722,0 C7.20297733,0.000313517873 7.16926837,0.00766737577 7.13783708,0.0216488654 L3.99504862,1.40717624 C3.93681272,1.43269898 3.88922917,1.47958644 3.86102996,1.53923434 L3.07533288,3.20186719 C3.02905353,3.29967692 3.04147765,3.41713839 3.10704717,3.50170397 L4.22625633,4.94784816 L4.22625633,5.81813262 C4.22627079,5.97116738 4.34351851,6.09522278 4.48815536,6.0952381 L9.98803496,6.0952381 C10.1326718,6.09522278 10.2499195,5.97116738 10.249934,5.81813262 L10.249934,4.94784816 L11.3691433,3.50170397 C11.4347128,3.41713842 11.4471369,3.29967694 11.4008577,3.20186719 L10.6151606,1.53923434 C10.5869613,1.47958638 10.5393776,1.43269891 10.4811416,1.40717624 L7.33835324,0.0216488654 C7.3062864,0.00738854826 7.27185625,2.90832172e-05 7.2370722,0 Z M7.23809516,0.578024729 L10.1905976,1.8791215 L10.8565985,3.28954509 L9.98803496,4.41203873 C9.63802734,4.12667552 9.10761474,3.94946601 8.47188525,3.84050869 C8.53059516,3.55980938 8.5475903,3.25254519 8.5475903,2.8922884 C8.54770842,2.78569097 8.49003113,2.68846999 8.39924913,2.64224399 L7.35165301,2.10643456 C7.3122634,2.08595644 7.26864189,2.07627897 7.22479538,2.07829106 L7.22479538,2.07937349 C7.19000787,2.08125051 7.15592356,2.09045033 7.1245373,2.10643456 L6.07694119,2.64224399 C5.98615919,2.68846999 5.9284819,2.78569097 5.92860002,2.8922884 C5.92860002,3.25307507 5.94639608,3.56056787 6.00532802,3.84159112 C5.36758087,3.95129679 4.83907701,4.12789567 4.48917834,4.41312116 L3.61959179,3.28954509 L4.2855927,1.8791215 L7.23809516,0.578024729 Z M7.23809516,2.66389285 L8.00128519,3.05465491 C7.9916054,3.46122407 7.97037585,3.79970319 7.86931266,4.02127673 C7.77102406,4.23675395 7.53909623,4.42240941 7.23809516,4.62419761 C6.93709565,4.42240941 6.70516732,4.23675395 6.60687766,4.02127673 C6.50581184,3.79970319 6.48458335,3.46122407 6.47490513,3.05465491 L7.23809516,2.66389285 Z M6.19561444,4.36765857 C6.37990442,4.70272975 6.6746859,4.97500816 7.11123753,5.23036584 C7.19016571,5.27659655 7.28602461,5.27659655 7.36495273,5.23036584 C7.80094916,4.97533414 8.09520109,4.70321551 8.27955286,4.368741 C8.97615036,4.47915905 9.51020911,4.70878068 9.72613593,4.91104506 L9.72613593,5.5421095 L4.75005439,5.5421095 L4.75005439,4.91429241 C4.96504049,4.71228667 5.49476845,4.47709379 6.19561444,4.36765857 Z" id="Shape"></path>
            <path d="M10.3497444,6.09828069 C10.2627361,6.09954814 10.1821003,6.14874783 10.1350162,6.22929652 C10.0879321,6.30984514 10.0806717,6.41101272 10.1156824,6.49869972 C10.1424259,6.56853889 10.1530195,6.64557333 10.1450664,6.7228932 L10.1106139,7.06529373 C10.0926327,7.24026291 10.0429983,7.34813396 9.94444023,7.4121485 L9.8451413,7.47684823 C9.68277195,7.58226374 9.55253888,7.73884517 9.47226334,7.92632034 L8.90281347,9.25469271 C8.68347719,9.76680878 8.20876602,10.0956184 7.68285427,10.0956184 L7.55518398,10.0956184 C7.02927224,10.0956184 6.55456057,9.76680878 6.33522479,9.25469271 L5.7657749,7.92632034 C5.6854968,7.73884517 5.55525643,7.58226374 5.39289693,7.47684823 L5.29359804,7.4121485 C5.1950296,7.34813396 5.14538586,7.24020584 5.12742442,7.06529373 L5.09297179,6.7228932 C5.08506548,6.64597303 5.09551385,6.56922415 5.12235587,6.49869972 C5.16135048,6.40401907 5.15051933,6.29349227 5.09407857,6.21014304 C5.03763781,6.12679381 4.94450557,6.08379208 4.85093454,6.09787666 C4.75736353,6.1119613 4.67813877,6.18090677 4.64409935,6.27787533 C4.58408714,6.43554178 4.55909044,6.61005407 4.57722463,6.7864509 L4.61167726,7.12885143 C4.64109246,7.4153463 4.76085853,7.72908021 5.03015191,7.90399232 L5.1294508,7.96869212 C5.20316002,8.01666017 5.26115415,8.08661355 5.29663813,8.16947262 L5.86507432,9.49784505 C6.17098886,10.2121122 6.83186766,10.6666667 7.55518398,10.6666667 L7.68285427,10.6666667 C8.40617059,10.6666667 9.06704995,10.2120551 9.37296396,9.49784505 L9.94140011,8.16947262 C9.97688513,8.08661355 10.0348777,8.0165459 10.1085875,7.96869212 L10.2078863,7.90399232 C10.4771797,7.72908027 10.596925,7.41528923 10.626361,7.12885143 L10.6608136,6.7864509 C10.6789245,6.61045383 10.6545571,6.43508488 10.5939389,6.27673323 C10.5537939,6.16748132 10.4567982,6.09659879 10.3497444,6.09828063 L10.3497444,6.09828069 Z" id="Path"></path>
        </g>
    </g>
</svg>