<svg id="Layer_2" data-name="Layer 2" xmlns="http://www.w3.org/2000/svg" viewBox="0 0 24 24"><defs><style>.cls-1{fill:#231f20;}</style></defs><title>icons_final</title><path class="cls-1" d="M9.64,23.77a12.23,12.23,0,0,1-2.23-.68A11,11,0,0,1,5.35,22,12.07,12.07,0,0,1,2,18.65a11.65,11.65,0,0,1-1.1-2.06,11.28,11.28,0,0,1-.68-2.23,12.22,12.22,0,0,1,0-4.72A11.71,11.71,0,0,1,.91,7.41,12,12,0,0,1,2,5.35a13,13,0,0,1,1.5-1.83A11.39,11.39,0,0,1,5.35,2,11.7,11.7,0,0,1,7.41.91,12.23,12.23,0,0,1,9.64.23,12.26,12.26,0,0,1,12,0a12.41,12.41,0,0,1,2.36.22,12.23,12.23,0,0,1,2.23.68A11.7,11.7,0,0,1,18.65,2a11.39,11.39,0,0,1,1.84,1.5A13,13,0,0,1,22,5.35a12,12,0,0,1,1.1,2.06,13.35,13.35,0,0,1,.68,2.23,12.22,12.22,0,0,1,0,4.72,12.8,12.8,0,0,1-.68,2.23A11.65,11.65,0,0,1,22,18.65,12.07,12.07,0,0,1,18.65,22a11,11,0,0,1-2.06,1.1,12.23,12.23,0,0,1-2.23.68A12.41,12.41,0,0,1,12,24,12.26,12.26,0,0,1,9.64,23.77ZM7.83,2.11A10.65,10.65,0,0,0,4.41,4.42,10.88,10.88,0,0,0,2.1,7.83,10.48,10.48,0,0,0,1.26,12a10.43,10.43,0,0,0,.84,4.17,10.81,10.81,0,0,0,5.73,5.71,10.65,10.65,0,0,0,8.34,0,10.74,10.74,0,0,0,3.41-2.3,10.85,10.85,0,0,0,2.3-3.41A10.27,10.27,0,0,0,22.73,12a10.31,10.31,0,0,0-.85-4.18,10.85,10.85,0,0,0-2.3-3.41,10.6,10.6,0,0,0-3.41-2.31,10.65,10.65,0,0,0-8.34,0Zm9.55,6.83a.58.58,0,0,0-.48-.08L12,10.08,7.1,8.86a.58.58,0,0,0-.48.08.57.57,0,0,0-.28.38.58.58,0,0,0,.06.48.59.59,0,0,0,.4.28l4.57,1.15v3.08L7.71,19.2a.6.6,0,0,0-.13.46.61.61,0,0,0,.25.42.62.62,0,0,0,.47.13A.66.66,0,0,0,8.72,20L12,15.58,15.28,20a.83.83,0,0,0,.23.19.67.67,0,0,0,.28.06.63.63,0,0,0,.19,0,.5.5,0,0,0,.19-.1.61.61,0,0,0,.25-.42.6.6,0,0,0-.13-.46l-3.66-4.89V11.23l4.57-1.15a.59.59,0,0,0,.39-.28.62.62,0,0,0,.07-.48A.57.57,0,0,0,17.38,8.94ZM10.77,8.6a3.47,3.47,0,0,1-1-.68,3.11,3.11,0,0,1-.68-1,3,3,0,0,1-.25-1.23,3,3,0,0,1,.25-1.23,3,3,0,0,1,.68-1,3.44,3.44,0,0,1,1-.67,3.15,3.15,0,0,1,2.46,0,3.44,3.44,0,0,1,1,.67,3,3,0,0,1,.68,1,3,3,0,0,1,.25,1.23,3,3,0,0,1-.25,1.23,3.11,3.11,0,0,1-.68,1,3.47,3.47,0,0,1-1,.68,3.15,3.15,0,0,1-2.46,0Zm-.11-4.25a1.84,1.84,0,0,0-.56,1.34A1.89,1.89,0,0,0,13.33,7a1.81,1.81,0,0,0,.56-1.33,1.84,1.84,0,0,0-.56-1.34,1.87,1.87,0,0,0-2.67,0Z"/></svg>