<?xml version="1.0" encoding="UTF-8"?>
<svg width="16px" height="16px" viewBox="0 0 16 16" version="1.1" xmlns="http://www.w3.org/2000/svg" xmlns:xlink="http://www.w3.org/1999/xlink">
    <!-- Generator: Sketch 53.1 (72631) - https://sketchapp.com -->
    <title>iconEU</title>
    <desc>Created with Sketch.</desc>
    <g id="iconEU" stroke="none" stroke-width="1" fill="none" fill-rule="evenodd">
        <g id="SVG-Layer" fill="#000000" fill-rule="nonzero">
            <path d="M12.186803,5.29372529 L12.5652881,5.15884388 C12.6438978,5.13086261 12.6995391,5.05614932 12.7071329,4.96837945 L12.7266496,4.74604743 C12.7350382,4.65261675 12.6873426,4.5636485 12.6074582,4.52371542 L12.6029275,4.5214921 C12.5507599,4.49524721 12.5109659,4.44744703 12.4927974,4.38920455 L12.4199582,4.15019763 C12.3974455,4.07609474 12.3401097,4.01991624 12.2688109,4.00210141 C12.1975121,3.98428658 12.1226439,4.00743233 12.0714452,4.06311759 L11.6751858,4.48962451 C11.6188374,4.55007657 11.5998921,4.63942681 11.6263941,4.71973814 L11.7396608,5.06175889 C11.8038994,5.25614594 12.003167,5.35952115 12.186803,5.29372529 L12.186803,5.29372529 Z" id="Path"></path>
            <path d="M10.6972583,7.33176879 C10.5822917,7.43368778 10.5158871,7.584672 10.5160316,7.74382413 L10.5160316,12.0496541 C10.5160315,12.3104395 10.7147633,12.5219051 10.9600372,12.5221097 L13.8338754,12.5221097 C14.0791493,12.5219051 14.2778811,12.3104395 14.277881,12.0496541 L14.277881,7.41106719 C14.2777297,7.20793524 14.1698492,7.02225973 13.9990706,6.93120057 L13.8042518,6.82781622 C13.730558,6.78869255 13.6616247,6.74016266 13.5989777,6.68330043 L13.3515334,6.45911564 C13.2929886,6.40580591 13.2466266,6.33902463 13.2159619,6.26383399 L13.1960967,6.2152915 C13.116255,6.01884711 12.9341961,5.89169224 12.7329229,5.89179842 L12.3391032,5.89179842 C12.1564249,5.89175727 11.9879677,5.99661633 11.8985827,6.16600791 L11.8424721,6.27272727 C11.8121954,6.330117 11.7722681,6.3811102 11.7246747,6.42317192 L11.7246747,6.42317192 C11.6284366,6.5080573 11.5727427,6.63409511 11.572723,6.76704544 L11.572723,11.3348567 C11.5737248,11.466163 11.4822801,11.5775532 11.3597816,11.594244 C11.2933827,11.601139 11.2273312,11.5779133 11.1778912,11.5302858 C11.1284512,11.4826583 11.1002165,11.4150545 11.1001394,11.3441205 L11.1001394,7.32583994 C11.1002041,7.26225322 11.0656485,7.20437325 11.0115023,7.17737467 C10.9573562,7.15037616 10.8934063,7.15913897 10.8474675,7.19985176 L10.6972583,7.33176879 Z M13.2243262,7.76531617 C13.2243262,7.62656285 13.3301177,7.51408101 13.4606181,7.51408101 C13.5911184,7.51408101 13.6969099,7.62656285 13.6969099,7.76531624 L13.6969099,11.3456028 C13.6969099,11.4843561 13.5911184,11.5968379 13.4606181,11.5968379 C13.3301177,11.5968379 13.2243262,11.4843561 13.2243262,11.3456028 L13.2243262,7.76531617 Z M12.1714684,7.24654153 C12.1687924,7.11307668 12.2618283,6.99924699 12.3865009,6.9834486 C12.452582,6.97710153 12.5181282,7.00058681 12.5671182,7.04816398 C12.6161081,7.09574115 12.6440275,7.16302596 12.644052,7.23357211 L12.644052,11.3467144 C12.643975,11.4176483 12.6157403,11.4852522 12.5663003,11.5328797 C12.5168603,11.5805071 12.4508087,11.6037329 12.3844099,11.5968379 C12.2619113,11.580147 12.1704666,11.4687569 12.1714684,11.3374506 L12.1714684,7.24654153 Z" id="Shape"></path>
            <path d="M2.70202138,6.44095848 C2.69603685,6.4765507 2.69300475,6.51263304 2.69296004,6.5487895 L2.69296004,12.0496541 C2.69295974,12.310295 2.89147936,12.5217008 3.1366171,12.5221097 L6.01045538,12.5221097 C6.25572925,12.5219051 6.45446103,12.3104395 6.45446097,12.0496541 L6.45446097,6.1652668 C6.45485068,6.12799265 6.43831322,6.0928055 6.41004348,6.07075837 C6.38177368,6.04871125 6.34524027,6.04250934 6.31191917,6.05410079 L6.22444235,6.08485672 C6.11364794,6.12362204 6.02772503,6.21760877 5.99442379,6.33646242 L5.93064591,6.5587945 C5.89255312,6.69086615 5.8732872,6.82826093 5.87348978,6.96640316 L5.87348978,11.3389328 C5.87449153,11.4702391 5.78304691,11.5816293 5.66054832,11.5983201 C5.59418164,11.605222 5.52816181,11.5819869 5.47877507,11.5343468 C5.42938833,11.4867067 5.40123301,11.4190972 5.40125464,11.3481966 L5.40125464,8.07806324 C5.40154454,7.99816594 5.36252296,7.9239231 5.29837091,7.88231557 C5.23421885,7.84070798 5.15427532,7.83779282 5.08759293,7.87462944 L5.08759293,7.87462944 C4.92283149,7.96388256 4.81903596,8.14380749 4.8188894,8.34041499 L4.8188894,11.3359684 C4.81986963,11.4673992 4.7282365,11.5788366 4.60559944,11.5953557 C4.53925753,11.6021394 4.47330087,11.5788634 4.42394034,11.5312486 C4.3745798,11.4836338 4.3463923,11.4160951 4.34630576,11.3452322 L4.34630576,2.8736413 C4.34530401,2.74233499 4.43674863,2.63094484 4.55924721,2.61425395 C4.62564613,2.607359 4.69169763,2.63058474 4.74113761,2.67821222 C4.7905776,2.7258397 4.81881231,2.79344355 4.8188894,2.86437747 L4.8188894,7.20726286 C4.8187821,7.2710197 4.85517493,7.32842972 4.91079772,7.35224904 C4.96642051,7.37606836 5.0300779,7.3615028 5.07156134,7.31546441 L5.13777881,7.24135374 C5.2200879,7.1507446 5.27871378,7.03885097 5.30785316,6.91674903 L5.39951208,6.53507902 L5.39951208,2.8736413 C5.39851032,2.74233499 5.48995496,2.63094484 5.61245353,2.61425395 C5.67879544,2.60747025 5.74475211,2.63074623 5.79411264,2.67836108 C5.84347317,2.72597594 5.87166068,2.79351463 5.87174721,2.86437747 L5.87174721,4.90612648 C5.87108459,5.00796063 5.92238225,5.10217776 6.00576827,5.15227958 C6.08915432,5.2023814 6.1915291,5.20049714 6.2732342,5.14735672 L6.2732342,5.14735672 C6.38599518,5.07595283 6.45510263,4.94673308 6.45515801,4.80718874 L6.45515801,1.93502964 C6.45515801,1.73631356 6.30364842,1.57522233 6.11675188,1.57522233 L3.0320632,1.57522233 C2.84516665,1.57522233 2.69365706,1.73631356 2.69365706,1.93502965 L2.69365706,4.48851285 C2.69319471,4.61456562 2.72974534,4.73762904 2.79821097,4.84053854 L2.79821097,4.84053854 C2.88756953,4.97377274 2.92250916,5.13974172 2.89509758,5.30076581 L2.70202138,6.44095848 Z M3.2760223,2.86289526 C3.2760223,2.7241419 3.38181376,2.61166008 3.51231412,2.61166008 C3.6428145,2.61166008 3.74860595,2.7241419 3.74860595,2.86289526 L3.74860595,11.3456028 C3.74860595,11.4843561 3.6428145,11.5968379 3.51231412,11.5968379 C3.38181376,11.5968379 3.2760223,11.4843561 3.2760223,11.3456028 L3.2760223,2.86289526 Z" id="Shape"></path>
            <path d="M9.13452604,1.65303854 C9.13452604,0.751852768 8.57690522,0.0226037549 7.60106879,0.0226037549 L1.54774628,0.0226037549 C0.571909851,0.0226037549 0.0142890335,0.752964427 0.0142890335,1.65303854 C0.0142890335,1.69379941 0.0142890335,1.73344861 0.0188197026,1.77161561 C0.0645725246,2.34792207 0.49268423,2.80623217 1.03438662,2.85881917 C1.65299721,2.91588439 1.95829461,2.34226779 1.95829461,2.34226779 C1.98628098,2.28777528 2.00871305,2.23026031 2.02520911,2.17070158 C2.1241868,1.8027421 1.82376859,1.43515316 1.46758829,1.49925889 C1.2295539,1.54187253 1.13859201,1.7756917 1.13859201,1.7756917 C1.05216078,1.58411561 1.0688894,1.43478261 1.11907528,1.3236166 C1.19525932,1.16804627 1.34760746,1.07163135 1.51254647,1.07460474 L7.63522308,1.07460474 C7.80056839,1.07189824 7.9530541,1.16911826 8.02869425,1.32546937 C8.07957716,1.43663538 8.09560874,1.58485672 8.00917752,1.77754447 C8.00917752,1.77754447 7.91821561,1.54372529 7.68018123,1.50111166 C7.32504648,1.43700593 7.02462828,1.80459486 7.12256042,2.17255435 C7.13905648,2.23211308 7.16148854,2.28962805 7.18947491,2.34412055 C7.18947491,2.34412055 7.49477228,2.91773715 8.1133829,2.86067194 C8.65650201,2.80896903 9.08593677,2.34940537 9.13104089,1.77161561 C9.13313196,1.73344861 9.13452604,1.69379941 9.13452604,1.65303854 Z" id="Path"></path>
            <path d="M2.31656598,13.0242095 C2.03169792,13.0242095 1.80076673,13.269745 1.80076673,13.5726285 L1.80076673,13.7949604 C1.80076673,13.9666626 1.93167975,14.1058547 2.09316914,14.1058547 L7.05460039,14.1058547 C7.21614626,14.1058549 7.34715896,13.9667225 7.34735132,13.7949604 L7.34735132,13.5726285 C7.34725888,13.4270804 7.29279054,13.2875326 7.19592874,13.1846841 C7.09906688,13.0818356 6.9677459,13.0241112 6.83085502,13.0242095 L2.31656598,13.0242095 Z" id="Path"></path>
            <path d="M7.81784387,14.6535326 C7.75200874,14.6224947 7.68075242,14.6065846 7.60873606,14.6068429 L1.53798792,14.6068429 C1.25306349,14.6070475 1.0221886,14.8526889 1.02218866,15.1556324 L1.02218866,15.708498 C1.02209615,15.7822698 1.04959397,15.8530538 1.09862316,15.9052532 C1.14765234,15.9574525 1.21418945,15.9867837 1.28357342,15.9867836 L7.8641961,15.9867836 C7.93358007,15.9867837 8.00011717,15.9574525 8.04914635,15.9052532 C8.09817552,15.8530538 8.12567334,15.7822698 8.12558085,15.708498 L8.12558085,15.1556324 C8.12568458,14.9382021 8.00496607,14.7412393 7.81784387,14.6535326 L7.81784387,14.6535326 Z" id="Path"></path>
            <path d="M10.139289,13.0242095 C9.85529017,13.0264292 9.6255774,13.2706692 9.62348978,13.5726285 L9.62348978,13.7949604 C9.62368208,13.9667225 9.75469484,14.1058549 9.91624071,14.1058547 L14.8776719,14.1058547 C15.0391613,14.1058547 15.1700743,13.9666626 15.1700743,13.7949604 L15.1700743,13.5726285 C15.1681741,13.2705859 14.9383523,13.0262299 14.6542751,13.0242095 L10.139289,13.0242095 L10.139289,13.0242095 Z" id="Path"></path>
            <path d="M15.6405669,14.6535326 C15.5747481,14.6224413 15.5034809,14.6065287 15.4314591,14.6068429 L9.36105951,14.6068429 C9.07613508,14.6070475 8.84526013,14.8526889 8.84526019,15.1556324 L8.84526019,15.708498 C8.8451677,15.7822698 8.87266552,15.8530538 8.92169469,15.9052532 C8.97072393,15.9574525 9.03726103,15.9867837 9.106645,15.9867836 L15.6869191,15.9867836 C15.7563351,15.9867836 15.822908,15.9574643 15.8719925,15.9052756 C15.921077,15.853087 15.9486524,15.7823039 15.9486524,15.708498 L15.9486524,15.1556324 C15.9487856,14.9380859 15.8278864,14.7410513 15.6405669,14.6535326 L15.6405669,14.6535326 Z" id="Path"></path>
            <path d="M14.0349675,3.66217885 L14.0349675,3.66217885 C13.8895574,3.62651789 13.7388136,3.69232205 13.6589219,3.826334 L13.2706784,4.47739624 C13.2532219,4.50679089 13.2396206,4.53858133 13.2302509,4.57188735 L13.1305762,4.93169467 C13.0953084,5.05968064 13.1266258,5.19795218 13.2128253,5.29483696 C13.2710315,5.35945352 13.318836,5.43381735 13.3543215,5.51494565 C13.3762044,5.56706155 13.402941,5.61671641 13.434131,5.66316699 C13.450317,5.68759638 13.4681373,5.71075416 13.4874535,5.73246047 C13.4989545,5.74505929 13.5115009,5.75839921 13.5250929,5.77173913 C13.6175317,5.86879884 13.7304503,5.94096169 13.8544377,5.98221344 C13.9528791,6.01739149 14.0448503,6.07042241 14.1262779,6.13895751 C14.2447763,6.23376769 14.4064801,6.23934387 14.5305075,6.15289692 C14.6545349,6.06644999 14.7142229,5.90656396 14.6797165,5.75321147 L14.5291589,5.07991601 C14.5218597,5.04703237 14.5186955,5.01326451 14.5197491,4.97949605 L14.5413568,4.36511858 C14.5531702,4.03193173 14.3405946,3.73684683 14.0349675,3.66217885 L14.0349675,3.66217885 Z" id="Path"></path>
        </g>
    </g>
</svg>