<?xml version="1.0" encoding="UTF-8"?>
<svg width="16px" height="16px" viewBox="0 0 16 16" version="1.1" xmlns="http://www.w3.org/2000/svg" xmlns:xlink="http://www.w3.org/1999/xlink">
    <!-- Generator: Sketch 53.1 (72631) - https://sketchapp.com -->
    <title>iconBerlin</title>
    <desc>Created with Sketch.</desc>
    <g id="iconBerlin" stroke="none" stroke-width="1" fill="none" fill-rule="evenodd">
        <g id="SVG-Layer" fill="#000000" fill-rule="nonzero">
            <path d="M0.941176469,11.7333333 C0.681277883,11.7333333 0.470588235,11.4945517 0.470588235,11.2 L0.470588235,4.80000001 C0.470588235,4.50544827 0.681277883,4.26666667 0.941176469,4.26666667 L0.941176469,1.06666667 L0.470588235,1.06666667 C0.210689647,1.06666667 0,0.827885065 0,0.533333334 C0,0.2387816 0.210689647,0 0.470588235,0 L15.5294118,0 C15.7893103,0 16,0.2387816 16,0.533333334 C16,0.827885065 15.7893103,1.06666667 15.5294118,1.06666667 L15.0588235,1.06666667 L15.0588235,14.9333334 L15.5294118,14.9333334 C15.7893103,14.9333334 16,15.1721149 16,15.4666667 C16,15.7612184 15.7893103,16 15.5294118,16 L0.470588235,16 C0.210689647,16 0,15.7612184 0,15.4666667 C0,15.1721149 0.210689647,14.9333334 0.470588235,14.9333334 L0.941176469,14.9333334 L0.941176469,11.7333333 Z M4.23529412,11.7333333 L1.88235294,11.7333333 L1.88235294,14.9333334 L4.23529412,14.9333334 L4.23529412,11.7333333 Z M1.88235294,4.26666667 L4.23529412,4.26666667 L4.23529412,1.06666667 L1.88235294,1.06666667 L1.88235294,4.26666667 Z M5.17647059,11.7333333 L5.17647059,14.9333334 L7.52941179,14.9333334 L7.52941179,1.06666667 L5.17647059,1.06666667 L5.17647059,4.26666667 C5.43636917,4.26666667 5.64705883,4.50544827 5.64705883,4.80000001 L5.64705883,11.2 C5.64705883,11.4945517 5.43636917,11.7333333 5.17647059,11.7333333 Z M8.47058821,1.06666667 L8.47058821,14.9333334 L10.8235294,14.9333334 L10.8235294,1.06666667 L8.47058821,1.06666667 Z M11.7647059,1.06666667 L11.7647059,14.9333334 L14.117647,14.9333334 L14.117647,1.06666667 L11.7647059,1.06666667 Z M1.4117647,5.33333334 L1.4117647,10.6666667 L4.70588235,10.6666667 L4.70588235,5.33333334 L1.4117647,5.33333334 Z M3.52941177,8.12396563 L3.52941177,9.06666668 C3.52941177,9.36121844 3.31872212,9.59999999 3.05882353,9.59999999 C2.79892494,9.59999999 2.5882353,9.36121844 2.5882353,9.06666668 L2.5882353,8.12396563 C2.30691694,7.93953386 2.11764706,7.59481732 2.11764706,7.20000001 C2.11764706,6.6108963 2.53902612,6.13333333 3.05882353,6.13333333 C3.57862094,6.13333333 4,6.6108963 4,7.20000001 C4,7.59481732 3.81073012,7.93953386 3.52941177,8.12396563 Z" id="Shape"></path>
        </g>
    </g>
</svg>