<?xml version="1.0" encoding="UTF-8"?>
<svg width="16px" height="16px" viewBox="0 0 16 16" version="1.1" xmlns="http://www.w3.org/2000/svg" xmlns:xlink="http://www.w3.org/1999/xlink">
    <!-- Generator: Sketch 53.1 (72631) - https://sketchapp.com -->
    <title>iconPoland</title>
    <desc>Created with Sketch.</desc>
    <g id="iconPoland" stroke="none" stroke-width="1" fill="none" fill-rule="evenodd">
        <g id="street-view-solid" fill="#000000" fill-rule="nonzero">
            <path d="M11.496875,10.305 C11.3525,10.470625 11.19125,10.620625 11,10.7315625 L11,11.4484375 C13.07875,11.7403125 14.5,12.325 14.5,13 C14.5,13.9665625 11.59,14.75 8,14.75 C4.41,14.75 1.5,13.9665625 1.5,13 C1.5,12.325 2.92125,11.740625 5,11.4484375 L5,10.7315625 C4.80875,10.620625 4.6475,10.470625 4.503125,10.305 C1.8396875,10.791875 0,11.8140625 0,13 C0,14.656875 3.581875,16 8,16 C12.418125,16 16,14.656875 16,13 C16,11.8140625 14.1603125,10.791875 11.496875,10.305 Z M8,4 C9.1046875,4 10,3.1046875 10,2 C10,0.8953125 9.1046875,0 8,0 C6.8953125,0 6,0.8953125 6,2 C6,3.1046875 6.8953125,4 8,4 Z M6,10 L6,13 C6,13.5521875 6.4478125,14 7,14 L9,14 C9.5521875,14 10,13.5521875 10,13 L10,10 C10.5521875,10 11,9.5521875 11,9 L11,6 C11,5.1715625 10.3284375,4.5 9.5,4.5 L9.13125,4.5 C8.7853125,4.6571875 8.404375,4.75 8,4.75 C7.595625,4.75 7.2146875,4.6571875 6.86875,4.5 L6.5,4.5 C5.6715625,4.5 5,5.1715625 5,6 L5,9 C5,9.5521875 5.4478125,10 6,10 Z" id="Shape"></path>
        </g>
    </g>
</svg>