<?xml version="1.0" encoding="UTF-8"?>
<svg width="150px" height="34px" viewBox="0 0 150 34" version="1.1" xmlns="http://www.w3.org/2000/svg" xmlns:xlink="http://www.w3.org/1999/xlink">
    <!-- Generator: Sketch 53.1 (72631) - https://sketchapp.com -->
    <title>logo</title>
    <desc>Created with Sketch.</desc>
    <defs>
        <linearGradient x1="16.2055858%" y1="20.5264089%" x2="99.7819836%" y2="66.6155592%" id="linearGradient-1">
            <stop stop-color="#770F00" offset="0%"></stop>
            <stop stop-color="#831000" offset="7.65%"></stop>
            <stop stop-color="#A11007" offset="22.56%"></stop>
            <stop stop-color="#CF0B10" offset="43.1%"></stop>
            <stop stop-color="#E30613" offset="51.53%"></stop>
            <stop stop-color="#770F00" offset="100%"></stop>
        </linearGradient>
        <linearGradient x1="51.6468891%" y1="81.1814209%" x2="39.3274837%" y2="12.5289798%" id="linearGradient-2">
            <stop stop-color="#E30613" offset="0%"></stop>
            <stop stop-color="#E00713" offset="1.93%"></stop>
            <stop stop-color="#D50A11" offset="4.37%"></stop>
            <stop stop-color="#C30D0E" offset="7.1%"></stop>
            <stop stop-color="#AA0F09" offset="10%"></stop>
            <stop stop-color="#9C1006" offset="11.33%"></stop>
            <stop stop-color="#971005" offset="15.73%"></stop>
            <stop stop-color="#881002" offset="22.28%"></stop>
            <stop stop-color="#770F00" offset="28.08%"></stop>
            <stop stop-color="#7F0F00" offset="31.3%"></stop>
            <stop stop-color="#931004" offset="36.84%"></stop>
            <stop stop-color="#B20F0B" offset="43.99%"></stop>
            <stop stop-color="#C00D0D" offset="46.8%"></stop>
            <stop stop-color="#D5271B" offset="70.51%"></stop>
            <stop stop-color="#E73926" offset="87.76%"></stop>
            <stop stop-color="#C00D0D" offset="100%"></stop>
        </linearGradient>
        <linearGradient x1="-0.000106054763%" y1="50.0007988%" x2="99.9995715%" y2="50.0007988%" id="linearGradient-3">
            <stop stop-color="#E30613" offset="0%"></stop>
            <stop stop-color="#E30613" offset="73.54%"></stop>
            <stop stop-color="#E73926" offset="87.76%"></stop>
            <stop stop-color="#C00D0D" offset="100%"></stop>
        </linearGradient>
    </defs>
    <g id="Europac-v5" stroke="none" stroke-width="1" fill="none" fill-rule="evenodd">
        <g id="01Landing-page-Cards" transform="translate(-33.000000, -40.000000)">
            <g id="logo" transform="translate(33.000000, 40.000000)">
                <g>
                    <g id="g16" transform="translate(31.552530, 13.852969)" fill="#E30613">
                        <path d="M14.8159919,12.9802456 C14.8159919,17.4390175 11.8709514,19.9600877 7.41285425,19.9600877 C2.95445344,19.9600877 0.0634615385,17.3859298 0.0634615385,12.9802456 L0.0634615385,0.77245614 C0.0634615385,0.77245614 0.8201417,0.533561404 2.19807692,0.533561404 C3.57601215,0.533561404 4.3597166,0.77245614 4.3597166,0.77245614 L4.3597166,13.2990702 C4.3597166,15.2892632 5.46740891,16.3775614 7.46690283,16.3775614 C9.49342105,16.3775614 10.5473684,15.2895614 10.5473684,13.2990702 L10.5473684,0.77245614 C10.5473684,0.77245614 11.2767206,0.533561404 12.6546559,0.533561404 C14.0328947,0.533561404 14.8162955,0.77245614 14.8162955,0.77245614 L14.8162955,12.9802456 L14.8159919,12.9802456 Z" id="path2"></path>
                        <path d="M26.1088057,0.533561404 C30.2426113,0.533561404 32.4853239,2.89566667 32.4853239,6.39885965 C32.4853239,8.89368421 31.2695344,10.8576316 29.1075911,11.7067368 L33.5119433,19.4032632 C33.5119433,19.4032632 32.6201417,19.6421579 31.0530364,19.6421579 C29.5399798,19.6421579 28.6752024,19.4032632 28.6752024,19.4032632 L24.6762146,12.237614 L23.0010121,12.237614 L23.0010121,19.4032632 C23.0010121,19.4032632 22.190587,19.6421579 20.8663968,19.6421579 C19.4073887,19.6421579 18.6777328,19.4032632 18.6777328,19.4032632 L18.6777328,0.533561404 L26.1088057,0.533561404 Z M23.0016194,8.94647368 L25.4875506,8.94647368 C27.1357287,8.94647368 27.9734818,8.01773684 27.9734818,6.3985614 C27.9734818,4.75314035 27.1360324,3.82440351 25.4875506,3.82440351 L23.0016194,3.82440351 L23.0016194,8.94647368 Z" id="path4" fill-rule="nonzero"></path>
                        <path d="M43.319332,0.215035088 C48.290587,0.215035088 51.4794534,3.18735088 51.4794534,10.0878596 C51.4794534,16.9880702 48.3449393,19.960386 43.319332,19.960386 C38.2667004,19.960386 35.1324899,16.9880702 35.1324899,10.0878596 C35.1324899,3.2672807 38.320749,0.215035088 43.319332,0.215035088 L43.319332,0.215035088 Z M43.319332,3.53242105 C41.1036437,3.53242105 39.7257085,4.80652632 39.7257085,10.0878596 C39.7257085,15.3426491 41.1036437,16.6164561 43.319332,16.6164561 C45.5620445,16.6164561 46.9129555,15.3426491 46.9129555,10.0878596 C46.9129555,4.80652632 45.5620445,3.53242105 43.319332,3.53242105 L43.319332,3.53242105 Z" id="path6" fill-rule="nonzero"></path>
                        <path d="M59.0705466,19.4029649 C59.0705466,19.4029649 58.2865385,19.6418596 56.9089069,19.6418596 C55.4498988,19.6418596 54.7472672,19.4029649 54.7472672,19.4029649 L54.7472672,0.533263158 L62.2314777,0.533263158 C66.1490891,0.533263158 68.5812753,2.8422807 68.5812753,6.63745614 C68.5812753,10.4060877 66.1490891,12.714807 62.2314777,12.714807 L59.0705466,12.714807 L59.0705466,19.4029649 Z M61.609919,9.42426316 C63.2040486,9.42426316 64.1225709,8.4424386 64.1225709,6.63775439 C64.1225709,4.80652632 63.2040486,3.85124561 61.609919,3.85124561 L59.0705466,3.85124561 L59.0705466,9.4245614 L61.609919,9.4245614 L61.609919,9.42426316 Z" id="path8" fill-rule="nonzero"></path>
                        <path d="M77.2269231,0.533561404 C79.0096154,0.533561404 79.9554656,0.77245614 79.9554656,0.77245614 L86.1160931,19.4029649 C86.1160931,19.4029649 85.359413,19.6418596 83.8463563,19.6418596 C82.4407895,19.6418596 81.7651822,19.4029649 81.7651822,19.4029649 L80.4953441,15.5281579 L73.7137652,15.5281579 L72.4433198,19.4029649 C72.4433198,19.4029649 71.659919,19.6418596 70.3357287,19.6418596 C69.0658907,19.6418596 68.3365385,19.4029649 68.3365385,19.4029649 L74.497166,0.77245614 C74.4977733,0.77245614 75.5243927,0.533561404 77.2269231,0.533561404 L77.2269231,0.533561404 Z M77.037753,4.51424561 C77.037753,4.51424561 76.848583,5.94761404 76.3077935,7.61957895 L74.713664,12.4231228 L79.4966599,12.4231228 L77.929251,7.61957895 C77.3617409,5.92107018 77.1458502,4.51424561 77.1458502,4.51424561 L77.037753,4.51424561 Z" id="path10" fill-rule="nonzero"></path>
                        <path d="M95.6796559,0.215035088 C98.9225709,0.215035088 100.651215,1.24994737 100.651215,1.24994737 C100.70587,2.44412281 100.192105,3.42624561 99.4087045,4.16947368 C99.4087045,4.16947368 97.9490891,3.63889474 96.247166,3.63889474 C93.4912955,3.63889474 91.7347166,5.04542105 91.7347166,10.1141053 C91.7347166,15.183386 93.4912955,16.5102807 96.247166,16.5102807 C98.0845142,16.5102807 99.6519231,15.9263158 99.6519231,15.9263158 C100.462652,16.6427018 100.921761,17.7840877 100.921761,18.9251754 C100.921761,18.9251754 99.1384615,19.9600877 95.6796559,19.9600877 C90.167915,19.9600877 87.1688259,16.5102807 87.1688259,10.0875614 C87.1688259,3.66514035 90.167915,0.215035088 95.6796559,0.215035088 L95.6796559,0.215035088 Z" id="path12"></path>
                        <path d="M113.97085,0.77245614 C113.97085,0.77245614 114.808907,0.533561404 116.13249,0.533561404 C117.456073,0.533561404 118.29413,0.77245614 118.29413,0.77245614 L118.29413,19.4029649 C118.29413,19.4029649 117.483401,19.6418596 116.159818,19.6418596 C114.700202,19.6418596 113.97085,19.4029649 113.97085,19.4029649 L113.97085,11.5740175 L107.891599,11.5740175 L107.891599,19.4029649 C107.891599,19.4029649 107.026822,19.6418596 105.72996,19.6418596 C104.298279,19.6418596 103.56832,19.4029649 103.56832,19.4029649 L103.56832,0.77245614 C103.56832,0.77245614 104.379049,0.533561404 105.703239,0.533561404 C107.05415,0.533561404 107.891599,0.77245614 107.891599,0.77245614 L107.891599,8.12361404 L113.97085,8.12361404 L113.97085,0.77245614 Z" id="path14"></path>
                    </g>
                    <g id="g79" transform="translate(0.277227, 0.133671)">
                        <path d="M26.4950405,10.0792105 C26.9817814,8.78691228 25.2713563,6.28612281 23.1525304,4.95296491 C20.9708502,3.57954386 18.0321862,3.30366667 17.06417,4.27266667 C17.8973684,2.61352632 19.0527328,1.20073684 20.1033401,0.651070175 C20.1036437,0.650473684 20.1051619,0.649578947 20.1075911,0.648385965 C20.1115385,0.646 20.1163968,0.644807018 20.1203441,0.642122807 C20.2308704,0.588140351 20.3417004,0.533263158 20.4555668,0.480175439 C21.8325911,-0.107666667 23.4953441,0.0936491228 25.4996964,1.35522807 C27.4864372,2.60607018 28.3578947,3.99738596 28.3812753,5.46714035 C28.3809717,5.46773684 28.3818826,5.46803509 28.3821862,5.46982456 C28.3840081,5.5897193 28.3779352,5.71080702 28.3706478,5.83308772 C28.2910931,7.14298246 27.3561741,8.94110526 26.4950405,10.0792105 Z" id="path31" fill="url(#linearGradient-1)"></path>
                        <path d="M17.7048583,3.20554386 C18.4427126,2.07757895 19.1720648,1.15719298 20.1036437,0.651368421 C14.5114372,3.41461404 12.5456478,6.85607018 12.4937247,6.9497193 C12.4928138,6.95061404 12.4922065,6.95121053 12.4922065,6.95121053 C12.436336,7.03859649 12.3935223,7.12359649 12.3470648,7.1942807 C8.2159919,13.5093333 8.66234818,23.746614 13.3275304,29.0995263 C17.6890688,34.1037895 28.3527328,33.0357719 28.3527328,33.0357719 L28.3527328,28.6828772 C28.3527328,28.6828772 20.6492915,30.274614 16.5904858,25.6747719 C12.357996,20.8795789 12.6552632,10.9217544 17.7048583,3.20554386 L17.7048583,3.20554386 Z" id="path66" fill="url(#linearGradient-2)"></path>
                        <path d="M28.3709514,5.83338596 C27.498583,11.033 19.8461538,18.2141579 11.8548583,20.9052281 C6.66437247,22.6535439 0.026417004,20.6967544 0.026417004,20.6967544 L0.0646761134,25.566807 C0.0646761134,25.566807 7.69281377,27.8632982 13.5874494,25.3297018 C19.3390688,22.8572456 23.3465587,18.974386 25.592915,15.5320351 C25.6427126,15.4550877 25.7076923,15.3727719 25.7699393,15.2743509 C25.7696356,15.2743509 28.1538462,12.0747719 28.3709514,5.83338596 Z" id="path77" fill="url(#linearGradient-3)"></path>
                    </g>
                </g>
            </g>
        </g>
    </g>
</svg>