<svg xmlns="http://www.w3.org/2000/svg" xmlns:xlink="http://www.w3.org/1999/xlink" viewBox="0 0 1920 1080"><defs><style>.cls-1,.cls-15,.cls-28{fill:#f9c9de;}.cls-1,.cls-14,.cls-18,.cls-28,.cls-32,.cls-33,.cls-34{stroke:gray;}.cls-1,.cls-13,.cls-14,.cls-18,.cls-21,.cls-24,.cls-28,.cls-32,.cls-33,.cls-34,.cls-35,.cls-5,.cls-8{stroke-miterlimit:10;}.cls-1,.cls-18{stroke-width:1.33px;}.cls-11,.cls-13,.cls-14,.cls-18,.cls-2,.cls-35,.cls-4,.cls-5,.cls-8{fill:none;}.cls-3{fill:#231f20;}.cls-4{stroke:#231f20;stroke-width:0.3px;}.cls-5{stroke:#934178;}.cls-11,.cls-12,.cls-5{stroke-linecap:round;}.cls-13,.cls-5{stroke-width:9px;}.cls-12,.cls-6{fill:#f2f2f2;}.cls-7{fill:#dbdddb;}.cls-21,.cls-8{stroke:#000;}.cls-9{fill:#54494d;}.cls-10{fill:#ffa88c;}.cls-11,.cls-12{stroke:#ffa88c;stroke-linejoin:round;}.cls-11{stroke-width:3px;}.cls-12{stroke-width:2.54px;}.cls-13{stroke:#e77ea9;}.cls-14,.cls-28{stroke-width:1.23px;}.cls-16{clip-path:url(#clip-path);}.cls-17{fill:#fff;}.cls-19{fill:#adafb1;}.cls-20{fill:#808184;}.cls-21{fill:#ead0c7;}.cls-22{fill:#f5dcea;}.cls-23{fill:#00adee;}.cls-24{stroke:#00adee;fill:url(#_6_dpi_40_);}.cls-25{clip-path:url(#clip-path-2);}.cls-26{clip-path:url(#clip-path-3);}.cls-27{clip-path:url(#clip-path-4);}.cls-29{fill:#e6e6e6;}.cls-30{fill:#6d5b54;}.cls-31{fill:url(#Grid_1_pica_Lines);}.cls-32,.cls-33,.cls-34{fill:#f9e4de;}.cls-32{stroke-width:0.87px;}.cls-33{stroke-width:0.82px;}.cls-35{stroke:#333;}</style><clipPath id="clip-path"><path class="cls-1" d="M764.2,491.1H796a0,0,0,0,1,0,0v25.67a0,0,0,0,1,0,0H764.2a12.84,12.84,0,0,1-12.84-12.84v0A12.84,12.84,0,0,1,764.2,491.1Z" transform="translate(1470.86 1109.34) rotate(-172.11)"/></clipPath><pattern id="_6_dpi_40_" data-name="6 dpi 40%" width="48" height="48" patternTransform="translate(1172 -1026)" patternUnits="userSpaceOnUse" viewBox="0 0 48 48"><rect class="cls-2" width="48" height="48"/><path class="cls-3" d="M24,52.8A4.8,4.8,0,1,0,19.2,48,4.8,4.8,0,0,0,24,52.8Z"/><path class="cls-3" d="M48,52.8A4.8,4.8,0,1,0,43.2,48,4.8,4.8,0,0,0,48,52.8Z"/><path class="cls-3" d="M24,28.8A4.8,4.8,0,1,0,19.2,24,4.8,4.8,0,0,0,24,28.8Z"/><path class="cls-3" d="M48,28.8A4.8,4.8,0,1,0,43.2,24,4.8,4.8,0,0,0,48,28.8Z"/><path class="cls-3" d="M36,40.8A4.8,4.8,0,1,0,31.2,36,4.8,4.8,0,0,0,36,40.8Z"/><path class="cls-3" d="M12,40.8A4.8,4.8,0,1,0,7.2,36,4.8,4.8,0,0,0,12,40.8Z"/><path class="cls-3" d="M36,16.8A4.8,4.8,0,1,0,31.2,12,4.8,4.8,0,0,0,36,16.8Z"/><path class="cls-3" d="M12,16.8A4.8,4.8,0,1,0,7.2,12,4.8,4.8,0,0,0,12,16.8Z"/><path class="cls-3" d="M0,52.8A4.8,4.8,0,0,0,4.8,48,4.8,4.8,0,0,0,0,43.2a4.8,4.8,0,0,0,0,9.6Z"/><path class="cls-3" d="M0,28.8A4.8,4.8,0,0,0,4.8,24,4.8,4.8,0,0,0,0,19.2a4.8,4.8,0,0,0,0,9.6Z"/><path class="cls-3" d="M24,4.8A4.8,4.8,0,0,0,28.8,0a4.8,4.8,0,0,0-9.6,0A4.8,4.8,0,0,0,24,4.8Z"/><path class="cls-3" d="M48,4.8A4.8,4.8,0,0,0,52.8,0a4.8,4.8,0,0,0-9.6,0A4.8,4.8,0,0,0,48,4.8Z"/><path class="cls-3" d="M0,4.8A4.8,4.8,0,0,0,4.8,0,4.8,4.8,0,0,0,0-4.8,4.8,4.8,0,0,0-4.8,0,4.8,4.8,0,0,0,0,4.8Z"/></pattern><clipPath id="clip-path-2"><path class="cls-1" d="M513.2,560.1H545a0,0,0,0,1,0,0v25.67a0,0,0,0,1,0,0H513.2a12.84,12.84,0,0,1-12.84-12.84v0A12.84,12.84,0,0,1,513.2,560.1Z" transform="translate(66.6 -54.31) rotate(6.35)"/></clipPath><clipPath id="clip-path-3"><path class="cls-1" d="M531.2,605.1H563a0,0,0,0,1,0,0v25.67a0,0,0,0,1,0,0H531.2a12.84,12.84,0,0,1-12.84-12.84v0A12.84,12.84,0,0,1,531.2,605.1Z" transform="translate(71.69 -56.03) rotate(6.35)"/></clipPath><clipPath id="clip-path-4"><path class="cls-1" d="M523.2,522.1H555a0,0,0,0,1,0,0v25.67a0,0,0,0,1,0,0H523.2a12.84,12.84,0,0,1-12.84-12.84v0A12.84,12.84,0,0,1,523.2,522.1Z" transform="translate(19.19 -18.45) rotate(2.02)"/></clipPath><pattern id="Grid_1_pica_Lines" data-name="Grid 1 pica Lines" width="72" height="72" patternTransform="translate(1900 -1284)" patternUnits="userSpaceOnUse" viewBox="0 0 72 72"><rect class="cls-2" width="72" height="72"/><line class="cls-4" x1="6" y1="71.75" x2="6" y2="144.25"/><line class="cls-4" x1="30" y1="71.75" x2="30" y2="144.25"/><line class="cls-4" x1="54" y1="71.75" x2="54" y2="144.25"/><line class="cls-4" x1="18" y1="71.75" x2="18" y2="144.25"/><line class="cls-4" x1="42" y1="71.75" x2="42" y2="144.25"/><line class="cls-4" x1="66" y1="71.75" x2="66" y2="144.25"/><line class="cls-4" x1="71.75" y1="66" x2="144.25" y2="66"/><line class="cls-4" x1="71.75" y1="42" x2="144.25" y2="42"/><line class="cls-4" x1="71.75" y1="18" x2="144.25" y2="18"/><line class="cls-4" x1="71.75" y1="54" x2="144.25" y2="54"/><line class="cls-4" x1="71.75" y1="30" x2="144.25" y2="30"/><line class="cls-4" x1="71.75" y1="6" x2="144.25" y2="6"/><line class="cls-4" x1="6" y1="-0.25" x2="6" y2="72.25"/><line class="cls-4" x1="30" y1="-0.25" x2="30" y2="72.25"/><line class="cls-4" x1="54" y1="-0.25" x2="54" y2="72.25"/><line class="cls-4" x1="-0.25" y1="66" x2="72.25" y2="66"/><line class="cls-4" x1="-0.25" y1="42" x2="72.25" y2="42"/><line class="cls-4" x1="-0.25" y1="18" x2="72.25" y2="18"/><line class="cls-4" x1="-0.25" y1="54" x2="72.25" y2="54"/><line class="cls-4" x1="-0.25" y1="30" x2="72.25" y2="30"/><line class="cls-4" x1="-0.25" y1="6" x2="72.25" y2="6"/><line class="cls-4" x1="18" y1="-0.25" x2="18" y2="72.25"/><line class="cls-4" x1="42" y1="-0.25" x2="42" y2="72.25"/><line class="cls-4" x1="66" y1="-0.25" x2="66" y2="72.25"/><line class="cls-4" x1="-72.25" y1="66" x2="0.25" y2="66"/><line class="cls-4" x1="-72.25" y1="42" x2="0.25" y2="42"/><line class="cls-4" x1="-72.25" y1="18" x2="0.25" y2="18"/><line class="cls-4" x1="-72.25" y1="54" x2="0.25" y2="54"/><line class="cls-4" x1="-72.25" y1="30" x2="0.25" y2="30"/><line class="cls-4" x1="-72.25" y1="6" x2="0.25" y2="6"/><line class="cls-4" x1="6" y1="-72.25" x2="6" y2="0.25"/><line class="cls-4" x1="30" y1="-72.25" x2="30" y2="0.25"/><line class="cls-4" x1="54" y1="-72.25" x2="54" y2="0.25"/><line class="cls-4" x1="18" y1="-72.25" x2="18" y2="0.25"/><line class="cls-4" x1="42" y1="-72.25" x2="42" y2="0.25"/><line class="cls-4" x1="66" y1="-72.25" x2="66" y2="0.25"/></pattern></defs><title>Europe final</title><g id="clouds"><line class="cls-5" x1="802" y1="306" x2="379" y2="99"/><line class="cls-5" x1="954.5" y1="171.5" x2="947.5" y2="24.5"/><line class="cls-5" x1="1013.5" y1="171.5" x2="1374.5" y2="54.5"/><line class="cls-5" x1="1245.5" y1="568.5" x2="1692.5" y2="650.5"/><line class="cls-5" x1="657.5" y1="402.5" x2="355.5" y2="402.5"/><line class="cls-5" x1="722.5" y1="647.5" x2="526.5" y2="955.5"/><line class="cls-5" x1="1184.5" y1="654.5" x2="1536.5" y2="838.5"/></g><g id="Layer_3" data-name="Layer 3"><rect class="cls-6" x="330" y="698" width="1313" height="14"/><rect class="cls-6" x="330" y="731" width="1312" height="155"/><rect class="cls-7" x="342" y="763" width="1312" height="35"/><rect class="cls-7" x="304" y="833" width="1312" height="35"/><line class="cls-8" x1="130" y1="845" x2="1862" y2="751"/><line class="cls-8" x1="132.73" y1="895" x2="1867.27" y2="895"/><line class="cls-8" x1="45.73" y1="977" x2="1780.27" y2="977"/><polygon class="cls-9" points="552.36 806.7 1170.48 896.88 1198.5 931 858 930.5 479.82 919.5 552.36 806.7"/><rect class="cls-10" x="962.41" y="464.39" width="75.92" height="193.17"/><rect class="cls-10" x="875.92" y="460.55" width="75.92" height="197.02" transform="translate(63.08 -91.99) rotate(5.97)"/><polygon class="cls-10" points="1152.13 664.29 793.66 659.49 775.4 651.8 1135.79 652.76 1152.13 664.29"/><polygon class="cls-10" points="1165.59 760.4 825.37 760.4 773.48 737.33 1146.37 745.98 1165.59 760.4"/><polygon class="cls-6" points="814.28 418.61 1137.48 397.76 954.99 241 814.28 418.61"/><polygon class="cls-6" points="1150.22 750.79 796.52 746.94 793.66 659.49 1152.13 664.29 1150.22 750.79"/><rect class="cls-6" x="825.37" y="760.4" width="340.21" height="83.61"/><polygon class="cls-10" points="786.1 414.65 814.28 418.61 954.99 241 931.5 250.22 786.1 414.65"/><polygon class="cls-10" points="769.63 819.98 825.37 844.01 825.37 760.4 773.48 737.33 769.63 819.98"/><polygon class="cls-10" points="773.48 732.53 796.54 746.94 793.66 659.49 775.4 651.8 773.48 732.53"/><rect class="cls-10" x="788.54" y="460.55" width="75.92" height="197.02" transform="translate(148.54 -173.07) rotate(13.12)"/><rect class="cls-6" x="796.54" y="460.55" width="75.92" height="197.02" transform="translate(148.75 -174.89) rotate(13.12)"/><rect class="cls-6" x="885.92" y="460.55" width="75.92" height="197.02" transform="translate(63.14 -93.03) rotate(5.97)"/><rect class="cls-10" x="1055.6" y="458.63" width="75.92" height="200.86" transform="translate(64.06 -110.67) rotate(5.97)"/><rect class="cls-6" x="972.41" y="464.39" width="75.92" height="193.17"/><rect class="cls-6" x="1065.6" y="458.63" width="75.92" height="200.86" transform="translate(64.11 -111.71) rotate(5.97)"/><line class="cls-11" x1="834.5" y1="495.5" x2="797.5" y2="635.5"/><line class="cls-11" x1="852.5" y1="502.5" x2="821.5" y2="650.5"/><line class="cls-11" x1="870.5" y1="515.5" x2="843.5" y2="651.5"/><line class="cls-11" x1="909" y1="486" x2="898" y2="639"/><line class="cls-11" x1="928.5" y1="483.5" x2="923.5" y2="646.5"/><line class="cls-11" x1="954.5" y1="490.5" x2="939.5" y2="645.5"/><line class="cls-11" x1="986.5" y1="487.5" x2="986.5" y2="650.5"/><line class="cls-11" x1="1005.5" y1="479.5" x2="1010.5" y2="644.5"/><line class="cls-11" x1="1022.5" y1="480.5" x2="1036.5" y2="645.5"/><line class="cls-11" x1="1093.5" y1="473.5" x2="1069.5" y2="646.5"/><line class="cls-11" x1="1117.5" y1="473.5" x2="1098.5" y2="654.5"/><line class="cls-11" x1="1137.5" y1="487.5" x2="1121.5" y2="642.5"/><rect class="cls-12" x="889.56" y="460.68" width="87" height="20.72" transform="translate(54.03 -94.46) rotate(5.97)"/><rect class="cls-12" x="810.56" y="462.68" width="87" height="20.72" transform="translate(129.72 -181.58) rotate(13.12)"/><rect class="cls-12" x="969.56" y="456.68" width="87" height="20.72" transform="translate(-27.96 66.18) rotate(-3.69)"/><rect class="cls-12" x="1066.56" y="448.68" width="87" height="20.72" transform="translate(73.61 -148.18) rotate(7.9)"/><rect class="cls-6" x="815.5" y="411.42" width="341.17" height="41.33" transform="translate(-25.77 64.37) rotate(-3.69)"/><line class="cls-11" x1="817.5" y1="462.5" x2="1157.5" y2="440.5"/><polygon class="cls-10" points="788.57 453.01 817.19 463.69 814.53 422.45 786.34 418.49 788.57 453.01"/><polyline class="cls-11" points="854.5 402.5 1081.5 384.5 947.5 284.5 870.5 384.5 1029.5 364.5"/><circle class="cls-6" cx="1235.5" cy="731.5" r="31.5"/><circle class="cls-6" cx="728.5" cy="731.5" r="31.5"/><circle class="cls-6" cx="599.5" cy="731.5" r="31.5"/><circle class="cls-6" cx="502.5" cy="731.5" r="31.5"/><circle class="cls-6" cx="373.5" cy="731.5" r="31.5"/><circle class="cls-6" cx="1360.5" cy="731.5" r="31.5"/><circle class="cls-6" cx="1485.5" cy="731.5" r="31.5"/><circle class="cls-6" cx="1610.5" cy="731.5" r="31.5"/><line class="cls-13" x1="1046.42" y1="285.25" x2="1090.58" y2="259.75"/><line class="cls-13" x1="726.39" y1="528.69" x2="679.61" y2="546.31"/><line class="cls-13" x1="763.65" y1="470" x2="720.35" y2="445"/><line class="cls-13" x1="791" y1="523" x2="765" y2="548"/><line class="cls-13" x1="1059.86" y1="327.63" x2="1093.14" y2="337.37"/><path class="cls-14" d="M355.5,924.5s197-98,106-123-60,104,10,112,178-51,161-101-77-11-74,49,155,60,174,33,53-153-22-132-5,156,144,144,457-46,443-116-99-54-99-10,67,138,179,95,22-113-3-95-4,181,192,105"/><polygon class="cls-10" points="1212 846.96 821.24 846.96 761.63 825.43 1189.92 833.51 1212 846.96"/><rect class="cls-6" x="821.24" y="846.96" width="390.76" height="78.04"/><polygon class="cls-6" points="757.22 902.58 821.24 925 821.24 846.96 761.63 825.43 757.22 902.58"/></g><g id="Layer_4" data-name="Layer 4"><path class="cls-15" d="M764.2,491.1H796a0,0,0,0,1,0,0v25.67a0,0,0,0,1,0,0H764.2a12.84,12.84,0,0,1-12.84-12.84v0A12.84,12.84,0,0,1,764.2,491.1Z" transform="translate(1470.86 1109.34) rotate(-172.11)"/><g class="cls-16"><rect class="cls-17" x="747.05" y="495.33" width="51" height="6" transform="translate(1469.34 1098.03) rotate(-172.11)"/></g><path class="cls-18" d="M764.2,491.1H796a0,0,0,0,1,0,0v25.67a0,0,0,0,1,0,0H764.2a12.84,12.84,0,0,1-12.84-12.84v0A12.84,12.84,0,0,1,764.2,491.1Z" transform="translate(1470.86 1109.34) rotate(-172.11)"/><path class="cls-19" d="M248.26,616.73s3.32,93.49-14.45,90.71c-45-7.05-97-82.42-97-82.42l22.76-141.16,57.3-25.31Z"/><path class="cls-20" d="M278,558.36s-3.41-73.24-40-78.81-14.16,100.17-14.16,100.17l20.3,83.91,28.34,16.22S283.77,579.1,278,558.36Z"/><path class="cls-21" d="M232.38,496.78l-20.53,1.7,8.24,108.7L228.61,639l28.29,3.15s31.52-5.54,46.4-3.88,106,16.32,141.2,24.76,94.22,5.54,135.67-6.75S610.8,509.73,610.8,509.73l142.86,9.88s40.94,4.55,34-21.09-119.19-32.86-119.19-32.86L529.25,443.37l-86.94,2.39s-65.52,33.4-104.23,42.66S232.38,496.78,232.38,496.78Z"/><path class="cls-21" d="M591.09,550.29s51.26,4.41,52,34.13S611,606,586,595.66"/><rect class="cls-21" x="517.53" y="516.33" width="137.48" height="39.7" rx="19.85" transform="translate(15.05 -16) rotate(1.58)"/><path class="cls-21" d="M279.59,526.37s5.05-31.84,43.85-41.84S446.53,441.06,458,440.46c12.88-.66,92.87-1.46,123,18.48s31,53,48.38,73.21c16.24,18.9-26.7,19.83-43.46,1.07-6.5-7.29-16.6-30.22-16.6-30.22s-33.77-1.36-44.67-5c0,0-67.21,65.49-94.55,74.13-15.41,4.87-32.45,6.08-54.81,5.33"/><path class="cls-22" d="M170.41,469l67.66,10.55s-2.29,137.92,18,167.81,16.48,32.49,16.48,32.49l-74.06,1.8S137.25,550.22,170.41,469Z"/><path class="cls-21" d="M569,653.05s62.21,5.42,65.13-11.84,1.55-36.51-34.68-31.5a42.11,42.11,0,0,0-10.52,2.78"/><rect class="cls-21" x="506.26" y="559.38" width="137.44" height="39.7" rx="19.85" transform="translate(67.61 -60.06) rotate(6.35)"/><rect class="cls-21" x="525.9" y="602.72" width="104.98" height="39.7" rx="17.35" transform="translate(72.43 -60.17) rotate(6.35)"/><path class="cls-23" d="M63.38,430.7,216.24,459s-33,194.53,17.57,248.41L49.2,735.14S32,535.74,63.38,430.7Z"/><path class="cls-24" d="M63.38,430.7,216.24,459s-33,194.53,17.57,248.41L49.2,735.14S32,535.74,63.38,430.7Z"/><path class="cls-15" d="M513.2,560.1H545a0,0,0,0,1,0,0v25.67a0,0,0,0,1,0,0H513.2a12.84,12.84,0,0,1-12.84-12.84v0A12.84,12.84,0,0,1,513.2,560.1Z" transform="translate(66.6 -54.31) rotate(6.35)"/><g class="cls-25"><rect class="cls-17" x="498.5" y="575.5" width="51" height="6" transform="translate(67.22 -54.42) rotate(6.35)"/></g><path class="cls-18" d="M513.2,560.1H545a0,0,0,0,1,0,0v25.67a0,0,0,0,1,0,0H513.2a12.84,12.84,0,0,1-12.84-12.84v0A12.84,12.84,0,0,1,513.2,560.1Z" transform="translate(66.6 -54.31) rotate(6.35)"/><path class="cls-15" d="M531.2,605.1H563a0,0,0,0,1,0,0v25.67a0,0,0,0,1,0,0H531.2a12.84,12.84,0,0,1-12.84-12.84v0A12.84,12.84,0,0,1,531.2,605.1Z" transform="translate(71.69 -56.03) rotate(6.35)"/><g class="cls-26"><rect class="cls-17" x="516.5" y="620.5" width="51" height="6" transform="translate(72.31 -56.14) rotate(6.35)"/></g><path class="cls-18" d="M531.2,605.1H563a0,0,0,0,1,0,0v25.67a0,0,0,0,1,0,0H531.2a12.84,12.84,0,0,1-12.84-12.84v0A12.84,12.84,0,0,1,531.2,605.1Z" transform="translate(71.69 -56.03) rotate(6.35)"/><path class="cls-15" d="M523.2,522.1H555a0,0,0,0,1,0,0v25.67a0,0,0,0,1,0,0H523.2a12.84,12.84,0,0,1-12.84-12.84v0A12.84,12.84,0,0,1,523.2,522.1Z" transform="translate(19.19 -18.45) rotate(2.02)"/><g class="cls-27"><rect class="cls-17" x="508.92" y="537.39" width="51" height="6" transform="translate(19.38 -18.5) rotate(2.02)"/></g><path class="cls-18" d="M523.2,522.1H555a0,0,0,0,1,0,0v25.67a0,0,0,0,1,0,0H523.2a12.84,12.84,0,0,1-12.84-12.84v0A12.84,12.84,0,0,1,523.2,522.1Z" transform="translate(19.19 -18.45) rotate(2.02)"/><rect class="cls-28" x="605.84" y="527.8" width="43.77" height="3.29" transform="translate(790.18 -275.52) rotate(61.26)"/><path class="cls-19" d="M1587.32,389.33s2.21,93.52,19.79,89.7c44.48-9.69,92-88,92-88l-31-139.57-58.69-21.88Z"/><path class="cls-20" d="M1554.16,332.82s-.93-73.31,35.24-81,20,99.16,20,99.16l-15.31,85-27.34,17.87S1549.66,353.85,1554.16,332.82Z"/><path class="cls-21" d="M1596.09,268.65l20.61.49-1.82,109-6.62,32.3-28,4.81s-31.79-3.66-46.56-1.13-104.81,22.54-139.49,33.05-93.73,11.1-135.82,1.27-39.24-144.51-39.24-144.51l-142,18.29s-40.61,7-35.19-19,117-39.85,117-39.85l137.66-30.46,86.93-2.75s67.38,29.48,106.57,36.43S1596.09,268.65,1596.09,268.65Z"/><path class="cls-21" d="M1241.17,343.24s-50.91,7.43-49.86,37.14,33.26,19.63,57.58,7.86"/><rect class="cls-21" x="1176.41" y="309.02" width="137.48" height="39.7" rx="19.85" transform="translate(2514.1 548.66) rotate(175.03)"/><path class="cls-21" d="M1550.72,301s-6.92-31.49-46.24-39.19-125.45-36.12-136.91-36c-12.91.09-92.79,4-121.75,25.71s-27.83,54.75-44,75.94c-15.09,19.82,27.82,18.22,43.44-1.5,6.07-7.66,14.8-31.15,14.8-31.15s33.62-3.35,44.29-7.6c0,0,71,61.4,98.76,68.41,11.56,2.91,23.88,3.79,38.49,3.22"/><path class="cls-29" d="M1656.32,237.26l-66.92,14.52s10.43,137.55-8.06,168.59-14.54,33.4-14.54,33.4l74-2.57S1694.22,316.38,1656.32,237.26Z"/><path class="cls-21" d="M1269.32,444.52s-61.78,9.08-65.72-8-3.7-36.35,32.76-33.49"/><rect class="cls-21" x="1190.23" y="351.33" width="137.44" height="39.7" rx="19.85" transform="translate(2562.55 524.11) rotate(170.26)"/><path class="cls-30" d="M1760.91,192.71,1610,230s44.39,192.25-2.87,249L1793,495.78S1798.46,295.71,1760.91,192.71Z"/><path class="cls-31" d="M1760.91,192.71,1610,230s44.39,192.25-2.87,249L1793,495.78S1798.46,295.71,1760.91,192.71Z"/><rect class="cls-21" x="1205.63" y="394.8" width="104.98" height="39.7" rx="17.35" transform="translate(2568.23 610.55) rotate(170.26)"/><rect class="cls-32" x="1286.42" y="310.54" width="20.93" height="27.59" transform="matrix(0.99, -0.17, 0.17, 0.99, -36.17, 224)"/><rect class="cls-33" x="1303.06" y="352.82" width="17" height="25.27" transform="translate(-42.91 227.07) rotate(-9.74)"/><rect class="cls-34" x="1288.28" y="400.99" width="19.17" height="19.17" transform="translate(-50.74 225.41) rotate(-9.74)"/><circle cx="1607" cy="435" r="11"/><circle class="cls-17" cx="1607" cy="433" r="10.5"/><path d="M1607,423a10,10,0,1,1-10,10,10,10,0,0,1,10-10m0-1a11,11,0,1,0,11,11,11,11,0,0,0-11-11Z"/><circle cx="228.56" cy="669" r="11"/><circle class="cls-17" cx="229.56" cy="668" r="10.5"/><path d="M229.56,658a10,10,0,1,1-10,10,10,10,0,0,1,10-10m0-1a11,11,0,1,0,11,11,11,11,0,0,0-11-11Z"/><line class="cls-35" x1="1603" y1="430" x2="1613" y2="437"/><line class="cls-35" x1="1610.5" y1="429.5" x2="1604.5" y2="437.5"/><line class="cls-8" x1="227" y1="665" x2="234" y2="671"/><line class="cls-8" x1="233.5" y1="663.5" x2="227.5" y2="672.5"/><line class="cls-8" x1="723.5" y1="497.5" x2="724.5" y2="517.5"/><line class="cls-8" x1="649.5" y1="490.5" x2="648.5" y2="512.5"/><line class="cls-8" x1="601.5" y1="646.5" x2="598.5" y2="648.5"/><line class="cls-8" x1="1103.5" y1="298.5" x2="1103.5" y2="318.5"/><line class="cls-8" x1="1165.5" y1="292.5" x2="1170.5" y2="310.5"/></g></svg>