<svg id="Layer_1" data-name="Layer 1" xmlns="http://www.w3.org/2000/svg" xmlns:xlink="http://www.w3.org/1999/xlink" viewBox="0 0 566.93 283.46"><defs><style>.cls-1{fill:none;}.cls-2{fill:#231f20;}.cls-3{fill:#d44870;}.cls-4{fill:url(#linear-gradient);}.cls-5{fill:url(#_10_dpi_10_);}.cls-6{font-size:44.94px;font-family:MyriadPro-Regular, Myriad Pro;}.cls-13,.cls-16,.cls-6{fill:#fff;}.cls-7{letter-spacing:-0.01em;}.cls-8{letter-spacing:0.02em;}.cls-9{letter-spacing:-0.01em;}.cls-10{letter-spacing:0.02em;}.cls-11{letter-spacing:0em;}.cls-12{fill:url(#linear-gradient-2);}.cls-13{font-size:24.32px;font-family:Times-Roman, Times;}.cls-14{letter-spacing:-0.03em;}.cls-15{letter-spacing:0em;}.cls-17{fill:#f1f2f2;}</style><linearGradient id="linear-gradient" x1="-79.49" y1="75.17" x2="11.3" y2="67.6" gradientTransform="matrix(2.52, -0.14, 0.36, 0.99, 402.69, 49.79)" gradientUnits="userSpaceOnUse"><stop offset="0" stop-color="#7a2020"/><stop offset="0.04" stop-color="#832428"/><stop offset="0.36" stop-color="#bd3e5c"/><stop offset="0.51" stop-color="#d44870"/></linearGradient><pattern id="_10_dpi_10_" data-name="10 dpi 10%" width="28.8" height="28.8" patternTransform="translate(0 -30)" patternUnits="userSpaceOnUse" viewBox="0 0 28.8 28.8"><rect class="cls-1" width="28.8" height="28.8"/><circle class="cls-2" cx="28.8" cy="28.8" r="0.72"/><path class="cls-2" d="M14.4,29.52a.72.72,0,1,0-.72-.72A.72.72,0,0,0,14.4,29.52Z"/><path class="cls-2" d="M28.8,15.12a.72.72,0,1,0-.72-.72A.72.72,0,0,0,28.8,15.12Z"/><path class="cls-2" d="M14.4,15.12a.72.72,0,1,0-.72-.72A.72.72,0,0,0,14.4,15.12Z"/><path class="cls-2" d="M7.2,22.32a.72.72,0,1,0-.72-.72A.72.72,0,0,0,7.2,22.32Z"/><path class="cls-2" d="M21.6,22.32a.72.72,0,1,0-.72-.72A.72.72,0,0,0,21.6,22.32Z"/><path class="cls-2" d="M7.2,7.92a.72.72,0,1,0-.72-.72A.72.72,0,0,0,7.2,7.92Z"/><path class="cls-2" d="M21.6,7.92a.72.72,0,1,0-.72-.72A.72.72,0,0,0,21.6,7.92Z"/><circle class="cls-2" cy="28.8" r="0.72"/><path class="cls-2" d="M0,15.12a.72.72,0,0,0,0-1.44.72.72,0,0,0-.72.72A.72.72,0,0,0,0,15.12Z"/><path class="cls-2" d="M28.8.72A.72.72,0,0,0,29.52,0a.72.72,0,0,0-.72-.72.72.72,0,0,0-.72.72A.72.72,0,0,0,28.8.72Z"/><path class="cls-2" d="M14.4.72A.72.72,0,0,0,15.12,0a.72.72,0,0,0-.72-.72.72.72,0,0,0-.72.72A.72.72,0,0,0,14.4.72Z"/><path class="cls-2" d="M0,.72A.72.72,0,0,0,.72,0,.72.72,0,0,0,0-.72.72.72,0,0,0-.72,0,.72.72,0,0,0,0,.72Z"/></pattern><linearGradient id="linear-gradient-2" x1="264.62" y1="133.34" x2="532.91" y2="133.34" gradientUnits="userSpaceOnUse"><stop offset="0" stop-color="#d44870" stop-opacity="0"/><stop offset="0.17" stop-color="#d44870" stop-opacity="0.04"/><stop offset="0.3" stop-color="#d44870" stop-opacity="0.63"/><stop offset="0.38" stop-color="#d44870" stop-opacity="0.97"/><stop offset="1" stop-color="#d44870"/></linearGradient></defs><title>poland_flag</title><polygon class="cls-3" points="532.91 60.07 290.56 25.39 264.63 206.61 506.97 241.29 474.15 140.15 532.91 60.07"/><rect class="cls-4" x="276.93" y="33.75" width="131.14" height="183.07" transform="translate(21.21 -47.26) rotate(8.15)"/><polygon class="cls-5" points="394.44 225.19 264.63 206.61 290.56 25.39 420.38 43.97 394.44 225.19"/><rect class="cls-2" x="43.93" y="31.58" width="6.7" height="214.71" transform="translate(-6 2.19) rotate(-2.49)"/><polygon class="cls-2" points="310.24 196.43 264.63 206.61 265.65 199.44 310.24 196.43"/><rect class="cls-3" x="53.57" y="22.55" width="250.82" height="182.51" transform="translate(-7.24 12.28) rotate(-3.85)"/><text class="cls-6" transform="matrix(1, -0.09, 0.09, 1, 70.73, 80.42)"><tspan class="cls-7">L</tspan><tspan x="20.58" y="0">ec</tspan><tspan class="cls-8" x="63.24" y="0">z</tspan><tspan class="cls-9" x="83.55" y="0">y</tspan><tspan x="104.27" y="0">ć </tspan><tspan x="0" y="53.93" xml:space="preserve">   zamiast </tspan></text><text class="cls-6" transform="translate(178.98 181.2) rotate(-9.28)"> <tspan class="cls-10" x="9.53" y="0">k</tspan><tspan x="31.41" y="0">a</tspan><tspan class="cls-11" x="53.08" y="0">r</tspan><tspan x="67.55" y="0">ać</tspan></text><polygon class="cls-12" points="532.91 60.07 290.56 25.39 264.63 206.61 506.97 241.29 474.15 140.15 532.91 60.07"/><text class="cls-13" transform="translate(350.85 97) rotate(6.63)"><tspan class="cls-14">T<tspan class="cls-15" x="14.01" y="0">reatment</tspan></tspan><tspan x="0" y="29.19">Not</tspan><tspan x="0" y="58.37">Punishment</tspan></text><rect class="cls-16" x="342.5" y="167.34" width="121.99" height="8.48" transform="translate(20.1 -41.15) rotate(5.99)"/><rect class="cls-16" x="164.2" y="181.87" width="121.99" height="8.48" transform="translate(-11.99 15.54) rotate(-3.85)"/><circle class="cls-17" cx="174.14" cy="256.58" r="1.21"/><circle class="cls-17" cx="180.19" cy="256.58" r="1.21"/></svg>