<svg xmlns="http://www.w3.org/2000/svg" xmlns:xlink="http://www.w3.org/1999/xlink" viewBox="0 0 566.93 283.46"><defs><style>.cls-1,.cls-13,.cls-16,.cls-25,.cls-30,.cls-31,.cls-33,.cls-5{fill:none;}.cls-2{fill:url(#linear-gradient);}.cls-3{fill:#dddbdc;}.cls-27,.cls-4{opacity:0.53;}.cls-4{fill:url(#linear-gradient-2);}.cls-10,.cls-11,.cls-12,.cls-13,.cls-14,.cls-15,.cls-16,.cls-28,.cls-30,.cls-33,.cls-5,.cls-6,.cls-7{stroke:#231f20;}.cls-31,.cls-33,.cls-5{stroke-linecap:round;}.cls-10,.cls-11,.cls-12,.cls-13,.cls-14,.cls-15,.cls-16,.cls-25,.cls-28,.cls-30,.cls-31,.cls-33,.cls-5,.cls-6,.cls-7{stroke-miterlimit:10;}.cls-5{stroke-width:8.03px;}.cls-10,.cls-6{fill:#e6e7e8;}.cls-6,.cls-7{stroke-width:1.22px;}.cls-11,.cls-7{fill:#282627;}.cls-8{fill:#bcbec0;}.cls-23,.cls-9{fill:#231f20;}.cls-10,.cls-11{stroke-width:0.6px;}.cls-12,.cls-14,.cls-15,.cls-28{stroke-width:1.82px;}.cls-12{fill:url(#linear-gradient-3);}.cls-13{stroke-width:1.91px;}.cls-14{fill:#f1f2f2;}.cls-15{fill:#fff;}.cls-16{stroke-width:7.36px;}.cls-17{fill:url(#linear-gradient-4);}.cls-18{fill:url(#radial-gradient);}.cls-19{fill:url(#linear-gradient-5);}.cls-20{clip-path:url(#clip-path);}.cls-21{fill:url(#linear-gradient-6);}.cls-22{fill:url(#radial-gradient-2);}.cls-23{font-size:9.81px;font-family:MyriadPro-Regular, Myriad Pro;}.cls-24{fill:#cecacc;}.cls-25{stroke:#414042;stroke-width:0.92px;}.cls-26{fill:#be1e2d;}.cls-27{fill:url(#linear-gradient-7);}.cls-28{fill:url(#linear-gradient-8);}.cls-29{fill:#ed1c24;}.cls-31{stroke:#58595b;stroke-width:5px;}.cls-32{fill:#58595b;}.cls-33{stroke-width:4.89px;}</style><linearGradient id="linear-gradient" x1="337.41" y1="248.72" x2="589.41" y2="248.72" gradientTransform="matrix(-1, 0, 0, 1, 887.32, 1.33)" gradientUnits="userSpaceOnUse"><stop offset="0" stop-color="#fff" stop-opacity="0"/><stop offset="0.17" stop-color="#c0b5bb" stop-opacity="0.31"/><stop offset="0.44" stop-color="#725b68" stop-opacity="0.69"/><stop offset="0.72" stop-color="#442537" stop-opacity="0.92"/><stop offset="1" stop-color="#341326"/></linearGradient><linearGradient id="linear-gradient-2" x1="170.12" y1="233.05" x2="132.68" y2="130.18" gradientTransform="matrix(0.96, -0.29, 0.29, 0.96, 78.58, 56.14)" gradientUnits="userSpaceOnUse"><stop offset="0" stop-color="#fff" stop-opacity="0"/><stop offset="0.11" stop-color="#fefdfe" stop-opacity="0.02"/><stop offset="0.25" stop-color="#fdf7fa" stop-opacity="0.08"/><stop offset="0.39" stop-color="#faecf4" stop-opacity="0.18"/><stop offset="0.53" stop-color="#f6deeb" stop-opacity="0.33"/><stop offset="0.68" stop-color="#f1cbe1" stop-opacity="0.51"/><stop offset="0.84" stop-color="#ebb4d3" stop-opacity="0.73"/><stop offset="0.99" stop-color="#e49ac4" stop-opacity="0.99"/><stop offset="1" stop-color="#e499c3"/></linearGradient><linearGradient id="linear-gradient-3" x1="127.94" y1="151.1" x2="193.97" y2="117.45" gradientTransform="translate(116.39 -56.06) rotate(24.9)" gradientUnits="userSpaceOnUse"><stop offset="0" stop-color="#fff"/><stop offset="0.58" stop-color="#c4c6c8"/><stop offset="0.75" stop-color="#c6c8ca"/><stop offset="0.83" stop-color="#cecfd1"/><stop offset="0.89" stop-color="#dadcdd"/><stop offset="0.94" stop-color="#ededee"/><stop offset="0.98" stop-color="#fff"/></linearGradient><linearGradient id="linear-gradient-4" x1="329.01" y1="243.16" x2="322.21" y2="224.46" gradientTransform="matrix(1, 0, 0, 1, 0, 0)" xlink:href="#linear-gradient"/><radialGradient id="radial-gradient" cx="315.11" cy="207.33" r="28.79" gradientUnits="userSpaceOnUse"><stop offset="0.24" stop-color="#fee9ac"/><stop offset="0.62" stop-color="#d4b537"/><stop offset="0.86" stop-color="#fee9ac"/></radialGradient><linearGradient id="linear-gradient-5" x1="373.19" y1="247.39" x2="366.38" y2="228.7" gradientTransform="matrix(1, 0, 0, 1, 0, 0)" xlink:href="#linear-gradient"/><clipPath id="clip-path"><path class="cls-1" d="M320.46,228.48l-1.41-1.11a5.9,5.9,0,0,1,.22-9.4l6.45-4.63c2.26-1.63,16.69-10.34,18.74-8.47l1.78,1.62c2.9,2.65-8.9,16.25-12.26,18.28l-6.82,4.13A5.88,5.88,0,0,1,320.46,228.48Z"/></clipPath><linearGradient id="linear-gradient-6" x1="284.19" y1="207.33" x2="346.03" y2="207.33" gradientUnits="userSpaceOnUse"><stop offset="0.24" stop-color="#fff" stop-opacity="0"/><stop offset="0.62" stop-color="#464600"/><stop offset="0.86" stop-color="#fbb040" stop-opacity="0"/></linearGradient><radialGradient id="radial-gradient-2" cx="351.27" cy="215.69" r="28.71" xlink:href="#radial-gradient"/><linearGradient id="linear-gradient-7" x1="588.29" y1="281.7" x2="550.15" y2="176.91" gradientTransform="matrix(-1, 0.03, 0.03, 1, 907.82, -58.78)" xlink:href="#linear-gradient-2"/><linearGradient id="linear-gradient-8" x1="455.55" y1="162.71" x2="521.59" y2="129.07" gradientTransform="matrix(0.91, -0.42, -0.42, -0.91, -3.86, 448.44)" xlink:href="#linear-gradient-3"/></defs><title>turkey</title><g id="Layer_2" data-name="Layer 2"><ellipse class="cls-2" cx="423.92" cy="250.05" rx="126" ry="16.29" transform="translate(-15.91 29.18) rotate(-3.87)"/><polygon class="cls-3" points="224.03 9.93 86.87 96.04 46.14 10.23 224.03 9.93"/><polygon class="cls-4" points="197.79 176.44 230.61 238.16 362.48 190.11 251.41 140.22 197.79 176.44"/><polyline class="cls-5" points="199.99 28.12 86.87 96.04 52.31 38.48"/><circle class="cls-6" cx="55.53" cy="78.64" r="28.16"/><circle class="cls-7" cx="53.35" cy="81.34" r="28.16"/><circle class="cls-8" cx="53.35" cy="81.34" r="16.87"/><circle class="cls-9" cx="53.35" cy="81.34" r="8.69"/><circle class="cls-10" cx="42.8" cy="28.2" r="13.79"/><circle class="cls-11" cx="41.73" cy="29.52" r="13.79"/><circle class="cls-8" cx="41.73" cy="29.52" r="8.26"/><circle class="cls-9" cx="41.73" cy="29.52" r="4.26"/><circle class="cls-10" cx="69.9" cy="38.06" r="13.79"/><circle class="cls-11" cx="68.83" cy="39.38" r="13.79"/><circle class="cls-8" cx="68.83" cy="39.38" r="8.26"/><circle class="cls-9" cx="68.83" cy="39.38" r="4.26"/><rect class="cls-12" x="169.85" y="103.66" width="71.98" height="59.69" transform="matrix(0.86, -0.51, 0.51, 0.86, -39.36, 125)"/><polygon class="cls-9" points="250.69 145.49 195.33 178.73 190.34 177.62 252.05 140.57 250.69 145.49"/><ellipse class="cls-13" cx="223.46" cy="161.02" rx="29.95" ry="2.59" transform="translate(-51.01 138) rotate(-30.98)"/><rect class="cls-14" x="240.51" y="36.56" width="53.39" height="59.69" transform="translate(153.97 317.37) rotate(-79.67)"/><polygon class="cls-9" points="304.32 48.82 295.73 95.95 291.78 98.02 301.35 45.49 304.32 48.82"/><ellipse class="cls-15" cx="299.46" cy="71.57" rx="22.21" ry="2.59" transform="translate(175.37 353.35) rotate(-79.67)"/><line class="cls-16" x1="400.28" y1="161.42" x2="501.94" y2="164.61"/><line class="cls-16" x1="76.64" y1="190.8" x2="160.77" y2="212.63"/><line class="cls-16" x1="35.08" y1="231.02" x2="122" y2="231.02"/><line class="cls-16" x1="484.07" y1="184.85" x2="559.5" y2="175.5"/><rect class="cls-9" x="187.29" y="130.8" width="13.72" height="35.6" transform="translate(-48.79 121.14) rotate(-30.98)"/><rect class="cls-9" x="251.87" y="54.45" width="13.72" height="48.02" transform="translate(163.32 331.44) rotate(-86.21)"/><ellipse class="cls-17" cx="325.61" cy="233.81" rx="26.65" ry="4.23"/><path class="cls-18" d="M306.55,233.81c-8.66,0-16.1-3.43-19.91-10-3.34-5.78-3.27-12.94.2-20.15,3.2-6.66,9-12.66,16.37-16.91,16-9.21,33.69-7.38,40.37,4.18h0c3.34,5.78,3.27,12.93-.2,20.14-3.2,6.66-9,12.67-16.37,16.91A41.44,41.44,0,0,1,306.55,233.81Zm17.13-44.31a33.17,33.17,0,0,0-16.18,4.65c-5.87,3.39-10.46,8.07-12.92,13.19-2.2,4.58-2.38,8.88-.51,12.13,4.13,7.14,17.24,7.62,28.65,1,5.87-3.39,10.46-8.08,12.92-13.2,2.2-4.57,2.38-8.88.5-12.13h0C334,191.42,329.29,189.5,323.68,189.5Z"/><path class="cls-9" d="M223.56,97.68c33.89-35.16,48.37-76.17,32.36-91.61L133.2,133.38C149.22,148.82,189.67,132.83,223.56,97.68Z"/><ellipse class="cls-19" cx="369.78" cy="238.04" rx="26.65" ry="4.23"/><g class="cls-20"><path class="cls-21" d="M306.55,233.81c-8.66,0-16.1-3.43-19.91-10-3.34-5.78-3.27-12.94.2-20.15,3.2-6.66,9-12.66,16.37-16.91,16-9.21,33.69-7.38,40.37,4.18h0c3.34,5.78,3.27,12.93-.2,20.14-3.2,6.66-9,12.67-16.37,16.91A41.44,41.44,0,0,1,306.55,233.81Zm17.13-44.31a33.17,33.17,0,0,0-16.18,4.65c-5.87,3.39-10.46,8.07-12.92,13.19-2.2,4.58-2.38,8.88-.51,12.13,4.13,7.14,17.24,7.62,28.65,1,5.87-3.39,10.46-8.08,12.92-13.2,2.2-4.57,2.38-8.88.5-12.13h0C334,191.42,329.29,189.5,323.68,189.5Z"/></g><path class="cls-22" d="M353.58,239.61c-1.52,0-3.06-.07-4.63-.22-18.35-1.8-31.7-13.61-30.4-26.9s16.68-22.28,35-20.49c8.45.83,16.22,3.9,21.89,8.64,6.14,5.13,9.16,11.61,8.51,18.26C382.8,231.05,369.82,239.61,353.58,239.61Zm-4.43-39.24c-11.59,0-21.33,5.51-22,13-.81,8.21,9.58,16.23,22.69,17.51s24.85-4.57,25.65-12.78c.37-3.73-1.57-7.58-5.47-10.84-4.35-3.64-10.47-6-17.22-6.67C351.54,200.43,350.33,200.37,349.15,200.37Z"/><text class="cls-23" transform="translate(211.5 155.17) rotate(-31.51)">x20</text><text class="cls-23" transform="translate(289.4 72.23) rotate(-76.51)">x10</text><polyline class="cls-24" points="190.32 33.92 97.49 89.66 120.64 133.05 224.03 30.34 120.64 133.05 100.88 100.13"/><line class="cls-25" x1="109.85" y1="96.41" x2="127.55" y2="123.04"/><line class="cls-25" x1="119.26" y1="90.9" x2="131.25" y2="115.11"/><line class="cls-25" x1="128.03" y1="84.8" x2="139.37" y2="104.66"/><line class="cls-25" x1="137.12" y1="80.25" x2="148.66" y2="97.8"/><line class="cls-25" x1="146.72" y1="73.14" x2="157.05" y2="92.25"/><line class="cls-25" x1="153.98" y1="63.39" x2="165.55" y2="81.24"/><line class="cls-25" x1="164.37" y1="57.17" x2="177.52" y2="70.42"/><line class="cls-25" x1="173.83" y1="51.95" x2="182.56" y2="62.56"/><line class="cls-25" x1="183.94" y1="43.97" x2="191.35" y2="54.3"/><line class="cls-25" x1="191.93" y1="40.34" x2="196.75" y2="48.16"/><line class="cls-25" x1="198.79" y1="35.13" x2="205.21" y2="38.92"/><line class="cls-25" x1="207.68" y1="32.08" x2="213.53" y2="35.8"/><path class="cls-26" d="M105.43,73.32a.41.41,0,0,1-.16,0l-.65,0c-.4,0-.92-.09-1.57-.17s-1.4-.21-2.25-.37-1.75-.37-2.69-.63c-.56-.15-1.1-.32-1.61-.5s-1-.37-1.5-.56-.94-.41-1.38-.63-.85-.46-1.24-.7a13.6,13.6,0,0,1-1.42-1,11.47,11.47,0,0,1-1.2-1.08,10.57,10.57,0,0,1-1-1.16A10.28,10.28,0,0,1,88,65.27a6.67,6.67,0,0,1-.35-5.12,6.88,6.88,0,0,1,1.25-2.24A6.35,6.35,0,0,1,91,56.27a4.61,4.61,0,0,1,.88-.35,6,6,0,0,1,1-.19,6.82,6.82,0,0,1,1-.06,6.35,6.35,0,0,1,1.06.11,6.92,6.92,0,0,1,1.21.31,7.57,7.57,0,0,1,1.08.49,5.62,5.62,0,0,1,.25-1.16A6.68,6.68,0,0,1,98,54.27a6.47,6.47,0,0,1,.55-.91,7.07,7.07,0,0,1,.65-.78,5.55,5.55,0,0,1,1.55-1.16,6.28,6.28,0,0,1,2.57-.69,6.73,6.73,0,0,1,4.8,1.6,6.62,6.62,0,0,1,1.64,2.09,9.76,9.76,0,0,1,.54,1.37,10.41,10.41,0,0,1,.34,1.49,11.75,11.75,0,0,1,.14,1.6,12.43,12.43,0,0,1-.06,1.71c0,.46-.12.94-.2,1.42s-.19,1-.32,1.48-.28,1-.45,1.53-.36,1.06-.57,1.6q-.54,1.35-1.11,2.52c-.38.77-.74,1.45-1.06,2s-.6,1-.81,1.36l-.35.54a.46.46,0,0,1-.12.12.38.38,0,0,1-.13.09A.44.44,0,0,1,105.43,73.32ZM89.9,58.74a5.37,5.37,0,0,0-1,1.81,5.52,5.52,0,0,0-.27,2.07,5.21,5.21,0,0,0,.56,2.08A7.92,7.92,0,0,0,90.88,67a13.91,13.91,0,0,0,2.34,1.76A18.05,18.05,0,0,0,95.84,70a26.11,26.11,0,0,0,2.59.86c.73.21,1.43.39,2.12.52s1.31.25,1.89.33,1.07.16,1.51.2l1,.1c.12-.2.3-.49.52-.87s.48-.82.76-1.33.57-1.08.87-1.71.58-1.3.86-2,.59-1.64.86-2.58a17.22,17.22,0,0,0,.56-2.86,13,13,0,0,0,0-2.92,8.29,8.29,0,0,0-.81-2.76,5.44,5.44,0,0,0-5.21-3,5.18,5.18,0,0,0-2.07.57,4.21,4.21,0,0,0-1.29,1,5.81,5.81,0,0,0-.93,1.35,5.51,5.51,0,0,0-.52,1.49,4.09,4.09,0,0,0-.06,1.38.72.72,0,0,1-.07.38.59.59,0,0,1-.28.28.58.58,0,0,1-.39,0,.64.64,0,0,1-.35-.17,4,4,0,0,0-1.14-.78A5.31,5.31,0,0,0,94.79,57,5.93,5.93,0,0,0,93.16,57a4.53,4.53,0,0,0-1.56.44A5.32,5.32,0,0,0,89.9,58.74Z"/><polygon class="cls-27" points="388.8 157.48 388.21 221.2 276.96 221.2 332.99 122.36 388.8 157.48"/><polyline class="cls-5" points="383.69 4.98 496.81 72.91 531.37 15.35"/><circle class="cls-6" cx="528.15" cy="55.51" r="28.16"/><circle class="cls-7" cx="530.33" cy="58.21" r="28.16"/><circle class="cls-8" cx="530.33" cy="58.21" r="16.87"/><circle class="cls-9" cx="530.33" cy="58.21" r="8.69"/><rect class="cls-28" x="341.85" y="80.53" width="71.98" height="59.69" transform="translate(644.96 399.5) rotate(-149.02)"/><polygon class="cls-9" points="332.99 122.36 388.35 155.6 393.33 154.49 331.63 117.44 332.99 122.36"/><ellipse class="cls-13" cx="360.22" cy="137.89" rx="2.59" ry="29.95" transform="translate(56.57 375.73) rotate(-59.02)"/><rect class="cls-9" x="382.66" y="107.66" width="13.72" height="35.6" transform="translate(658.89 433.54) rotate(-149.02)"/><path class="cls-9" d="M379.21,82.09C352.49,54.36,341.06,22,353.69,9.84l96.79,100.4C437.85,122.42,405.94,109.81,379.21,82.09Z"/><text class="cls-23" transform="matrix(-0.85, -0.52, -0.52, 0.85, 372.18, 132.03)">x20</text><polyline class="cls-24" points="393.36 10.79 486.19 66.53 463.03 109.92 359.65 7.2 463.03 109.92 482.8 77"/><line class="cls-25" x1="473.83" y1="73.28" x2="456.13" y2="99.91"/><line class="cls-25" x1="464.42" y1="67.77" x2="452.42" y2="91.97"/><line class="cls-25" x1="455.65" y1="61.67" x2="444.31" y2="81.53"/><line class="cls-25" x1="446.56" y1="57.12" x2="435.02" y2="74.67"/><line class="cls-25" x1="436.95" y1="50.01" x2="426.63" y2="69.11"/><line class="cls-25" x1="429.7" y1="40.26" x2="418.13" y2="58.11"/><line class="cls-25" x1="419.31" y1="34.04" x2="406.16" y2="47.29"/><line class="cls-25" x1="409.85" y1="28.82" x2="401.12" y2="39.43"/><line class="cls-25" x1="399.74" y1="20.83" x2="392.33" y2="31.17"/><line class="cls-25" x1="391.75" y1="17.2" x2="386.93" y2="25.03"/><line class="cls-25" x1="384.89" y1="12" x2="378.47" y2="15.79"/><line class="cls-25" x1="376" y1="8.94" x2="370.15" y2="12.67"/><path class="cls-29" d="M478.1,50.13a.57.57,0,0,1-.13-.08.68.68,0,0,1-.12-.12s-.13-.21-.35-.55-.49-.79-.81-1.36-.68-1.24-1.06-2-.75-1.61-1.11-2.52q-.31-.81-.57-1.59c-.17-.52-.32-1-.45-1.54s-.24-1-.32-1.48-.15-.95-.2-1.41a12.43,12.43,0,0,1-.06-1.71,11.9,11.9,0,0,1,.14-1.61,10,10,0,0,1,.34-1.48,9.76,9.76,0,0,1,.54-1.37,6.55,6.55,0,0,1,1.64-2.1,6.81,6.81,0,0,1,4.8-1.6,6.52,6.52,0,0,1,2.56.69,4.67,4.67,0,0,1,.82.51,5.65,5.65,0,0,1,.74.65,7.19,7.19,0,0,1,.65.79,6.28,6.28,0,0,1,.55.91,7.17,7.17,0,0,1,.48,1.15,6.26,6.26,0,0,1,.25,1.15,7.53,7.53,0,0,1,1.08-.48,7.08,7.08,0,0,1,1.2-.32,6.56,6.56,0,0,1,1.07-.1,6.84,6.84,0,0,1,1,.05,6,6,0,0,1,1,.2,4.87,4.87,0,0,1,.88.34,6.34,6.34,0,0,1,2.1,1.64,6.81,6.81,0,0,1,1.6,4.79,6.52,6.52,0,0,1-.69,2.57,10.28,10.28,0,0,1-.76,1.26,9.8,9.8,0,0,1-1,1.17,13.84,13.84,0,0,1-1.2,1.07,13.66,13.66,0,0,1-1.42,1c-.39.24-.8.47-1.24.69s-.9.43-1.38.63-1,.39-1.5.57-1.05.34-1.61.5c-.94.26-1.84.46-2.69.63s-1.6.28-2.25.36-1.18.14-1.57.17l-.65.05-.16,0A.47.47,0,0,1,478.1,50.13Zm14-15.85a4.32,4.32,0,0,0-1.56-.44,5.93,5.93,0,0,0-1.63.06,6,6,0,0,0-1.49.48,4.22,4.22,0,0,0-1.14.78.59.59,0,0,1-.35.18.56.56,0,0,1-.4-.06.59.59,0,0,1-.27-.27.68.68,0,0,1-.07-.39,4.11,4.11,0,0,0-.06-1.38,5.94,5.94,0,0,0-1.45-2.83,4.5,4.5,0,0,0-1.29-1,5.33,5.33,0,0,0-2.07-.56,5.52,5.52,0,0,0-2.07.27,5.25,5.25,0,0,0-1.81,1,5.43,5.43,0,0,0-1.33,1.7,8.29,8.29,0,0,0-.81,2.76,13,13,0,0,0,0,2.92,16.36,16.36,0,0,0,.56,2.87c.27.93.55,1.79.86,2.57s.56,1.39.86,2,.59,1.2.87,1.71.53.95.76,1.33.4.67.52.87l1-.1c.43-.05.94-.11,1.51-.2l1.89-.33c.69-.14,1.39-.31,2.12-.52s1.68-.51,2.58-.86a17.73,17.73,0,0,0,2.63-1.28,13.72,13.72,0,0,0,2.34-1.75,8,8,0,0,0,1.72-2.31,5.29,5.29,0,0,0,.56-2.08,5.41,5.41,0,0,0-1.3-3.88A5.44,5.44,0,0,0,492.08,34.28Z"/><line class="cls-30" x1="118.7" y1="49.13" x2="170.94" y2="26"/><line class="cls-30" x1="412.73" y1="9.84" x2="464.98" y2="37.57"/><line class="cls-30" x1="440.79" y1="10.8" x2="468.68" y2="23.7"/><path class="cls-31" d="M357.61,21.12S355.38,51,377.84,72.91"/><path class="cls-32" d="M227,44.09l25.63-25.23s9.18,35.31-10.29,48.83Z"/><line class="cls-33" x1="160.76" y1="268.66" x2="315.11" y2="246.04"/></g></svg>